<svg width="24" height="24" viewBox="0 0 24 24" fill="none" xmlns="http://www.w3.org/2000/svg">
<g opacity="0.75" clip-path="url(#clip0_1_45760)">
<mask id="path-1-inside-1_1_45760" fill="white">
<path d="M8.42356 1.42645C8.69619 1.42645 8.95765 1.53465 9.15043 1.72726C9.34321 1.91987 9.45152 2.1811 9.45152 2.45349V8.41605C9.45247 8.55119 9.42653 8.68516 9.3752 8.8102C9.32388 8.93523 9.24819 9.04883 9.15255 9.14439C9.05691 9.23995 8.94321 9.31557 8.81806 9.36684C8.69291 9.41812 8.55882 9.44404 8.42356 9.44309H2.48424C2.34686 9.4469 2.21011 9.42316 2.08208 9.37325C1.95405 9.32335 1.83733 9.2483 1.73883 9.15255C1.64033 9.0568 1.56205 8.94229 1.50861 8.81578C1.45517 8.68928 1.42767 8.55336 1.42772 8.41605V2.48202C1.4248 2.3426 1.45014 2.20403 1.5022 2.07465C1.55426 1.94526 1.63197 1.82773 1.73067 1.72913C1.82936 1.63052 1.947 1.55287 2.0765 1.50086C2.206 1.44884 2.34469 1.42353 2.48424 1.42645H8.42356ZM8.42356 0H2.48424C1.82538 0 1.1935 0.261498 0.727616 0.726967C0.261731 1.19244 0 1.82375 0 2.48202L0 8.41605C-2.70735e-06 9.07498 0.2615 9.70703 0.727181 10.1736C1.19286 10.6402 1.82472 10.9033 2.48424 10.9052H8.42356C9.08373 10.9033 9.71633 10.6405 10.1831 10.1741C10.65 9.70767 10.913 9.07563 10.9149 8.41605V2.48202C10.913 1.82309 10.6497 1.1918 10.1827 0.726533C9.71569 0.261267 9.08308 -2.70493e-06 8.42356 0ZM21.5086 1.42645C21.7813 1.42645 22.0427 1.53465 22.2355 1.72726C22.4283 1.91987 22.5366 2.1811 22.5366 2.45349V8.41605C22.5375 8.55119 22.5116 8.68516 22.4603 8.8102C22.4089 8.93523 22.3333 9.04883 22.2376 9.14439C22.142 9.23995 22.0283 9.31557 21.9031 9.36684C21.778 9.41812 21.6439 9.44404 21.5086 9.44309H15.5693C15.2967 9.44309 15.0352 9.33488 14.8424 9.14228C14.6496 8.94967 14.5413 8.68844 14.5413 8.41605V2.48202C14.5385 2.34502 14.5629 2.20882 14.6132 2.08134C14.6635 1.95385 14.7387 1.83763 14.8343 1.73941C14.93 1.6412 15.0442 1.56296 15.1704 1.50923C15.2966 1.4555 15.4322 1.42736 15.5693 1.42645H21.5086ZM21.5086 0H15.5693C14.9104 0 14.2786 0.261498 13.8127 0.726967C13.3468 1.19244 13.0851 1.82375 13.0851 2.48202V8.41605C13.0851 9.07498 13.3466 9.70703 13.8123 10.1736C14.2779 10.6402 14.9098 10.9033 15.5693 10.9052H21.5086C22.1688 10.9033 22.8014 10.6405 23.2682 10.1741C23.735 9.70767 23.9981 9.07563 24 8.41605V2.48202C23.9981 1.82309 23.7348 1.1918 23.2678 0.726533C22.8008 0.261267 22.1681 -2.70493e-06 21.5086 0ZM8.42356 14.5498C8.55855 14.5498 8.69222 14.5763 8.81694 14.628C8.94166 14.6796 9.05498 14.7552 9.15043 14.8506C9.24589 14.946 9.32161 15.0592 9.37327 15.1838C9.42493 15.3084 9.45152 15.4419 9.45152 15.5768V21.5108C9.45247 21.646 9.42653 21.78 9.3752 21.905C9.32388 22.03 9.24819 22.1436 9.15255 22.2392C9.05691 22.3347 8.94321 22.4104 8.81806 22.4616C8.69291 22.5129 8.55882 22.5388 8.42356 22.5379H2.48424C2.34686 22.5417 2.21011 22.518 2.08208 22.4681C1.95405 22.4181 1.83733 22.3431 1.73883 22.2474C1.64033 22.1516 1.56205 22.0371 1.50861 21.9106C1.45517 21.7841 1.42767 21.6482 1.42772 21.5108V15.5768C1.42864 15.4398 1.4568 15.3043 1.51058 15.1783C1.56435 15.0522 1.64266 14.9381 1.74097 14.8425C1.83927 14.747 1.9556 14.6719 2.08319 14.6216C2.21079 14.5714 2.34711 14.5469 2.48424 14.5498H8.42356ZM8.42356 13.1233H2.48424C1.83029 13.1233 1.20271 13.3809 0.737635 13.8402C0.272562 14.2995 0.00751658 14.9235 0 15.5768L0 21.5108C-2.70735e-06 22.1698 0.2615 22.8018 0.727181 23.2684C1.19286 23.735 1.82472 23.9981 2.48424 24H8.42356C9.08373 23.9981 9.71633 23.7353 10.1831 23.2689C10.65 22.8025 10.913 22.1704 10.9149 21.5108V15.5768C10.913 14.9179 10.6497 14.2866 10.1827 13.8213C9.71569 13.3561 9.08308 13.0948 8.42356 13.0948V13.1233ZM23.2219 17.7664H19.3242V13.8722C19.3056 13.678 19.2152 13.4976 19.0707 13.3664C18.9262 13.2351 18.7378 13.1624 18.5425 13.1624C18.3472 13.1624 18.1589 13.2351 18.0144 13.3664C17.8698 13.4976 17.7795 13.678 17.7609 13.8722V17.7664H13.8632C13.6568 17.7664 13.4589 17.8483 13.313 17.9941C13.167 18.1399 13.0851 18.3377 13.0851 18.5438C13.0851 18.75 13.167 18.9478 13.313 19.0935C13.4589 19.2393 13.6568 19.3212 13.8632 19.3212H17.7609V23.2155C17.7504 23.3243 17.7629 23.4341 17.7974 23.5378C17.832 23.6416 17.8878 23.7369 17.9614 23.8179C18.035 23.8988 18.1248 23.9634 18.2248 24.0076C18.3249 24.0519 18.4331 24.0747 18.5425 24.0747C18.652 24.0747 18.7602 24.0519 18.8602 24.0076C18.9603 23.9634 19.05 23.8988 19.1236 23.8179C19.1972 23.7369 19.2531 23.6416 19.2876 23.5378C19.3222 23.4341 19.3346 23.3243 19.3242 23.2155V19.3212H23.2219C23.4283 19.3212 23.6262 19.2393 23.7721 19.0935C23.918 18.9478 24 18.75 24 18.5438C24 18.3377 23.918 18.1399 23.7721 17.9941C23.6262 17.8483 23.4283 17.7664 23.2219 17.7664Z"/>
</mask>
<path d="M8.42356 1.42645C8.69619 1.42645 8.95765 1.53465 9.15043 1.72726C9.34321 1.91987 9.45152 2.1811 9.45152 2.45349V8.41605C9.45247 8.55119 9.42653 8.68516 9.3752 8.8102C9.32388 8.93523 9.24819 9.04883 9.15255 9.14439C9.05691 9.23995 8.94321 9.31557 8.81806 9.36684C8.69291 9.41812 8.55882 9.44404 8.42356 9.44309H2.48424C2.34686 9.4469 2.21011 9.42316 2.08208 9.37325C1.95405 9.32335 1.83733 9.2483 1.73883 9.15255C1.64033 9.0568 1.56205 8.94229 1.50861 8.81578C1.45517 8.68928 1.42767 8.55336 1.42772 8.41605V2.48202C1.4248 2.3426 1.45014 2.20403 1.5022 2.07465C1.55426 1.94526 1.63197 1.82773 1.73067 1.72913C1.82936 1.63052 1.947 1.55287 2.0765 1.50086C2.206 1.44884 2.34469 1.42353 2.48424 1.42645H8.42356ZM8.42356 0H2.48424C1.82538 0 1.1935 0.261498 0.727616 0.726967C0.261731 1.19244 0 1.82375 0 2.48202L0 8.41605C-2.70735e-06 9.07498 0.2615 9.70703 0.727181 10.1736C1.19286 10.6402 1.82472 10.9033 2.48424 10.9052H8.42356C9.08373 10.9033 9.71633 10.6405 10.1831 10.1741C10.65 9.70767 10.913 9.07563 10.9149 8.41605V2.48202C10.913 1.82309 10.6497 1.1918 10.1827 0.726533C9.71569 0.261267 9.08308 -2.70493e-06 8.42356 0ZM21.5086 1.42645C21.7813 1.42645 22.0427 1.53465 22.2355 1.72726C22.4283 1.91987 22.5366 2.1811 22.5366 2.45349V8.41605C22.5375 8.55119 22.5116 8.68516 22.4603 8.8102C22.4089 8.93523 22.3333 9.04883 22.2376 9.14439C22.142 9.23995 22.0283 9.31557 21.9031 9.36684C21.778 9.41812 21.6439 9.44404 21.5086 9.44309H15.5693C15.2967 9.44309 15.0352 9.33488 14.8424 9.14228C14.6496 8.94967 14.5413 8.68844 14.5413 8.41605V2.48202C14.5385 2.34502 14.5629 2.20882 14.6132 2.08134C14.6635 1.95385 14.7387 1.83763 14.8343 1.73941C14.93 1.6412 15.0442 1.56296 15.1704 1.50923C15.2966 1.4555 15.4322 1.42736 15.5693 1.42645H21.5086ZM21.5086 0H15.5693C14.9104 0 14.2786 0.261498 13.8127 0.726967C13.3468 1.19244 13.0851 1.82375 13.0851 2.48202V8.41605C13.0851 9.07498 13.3466 9.70703 13.8123 10.1736C14.2779 10.6402 14.9098 10.9033 15.5693 10.9052H21.5086C22.1688 10.9033 22.8014 10.6405 23.2682 10.1741C23.735 9.70767 23.9981 9.07563 24 8.41605V2.48202C23.9981 1.82309 23.7348 1.1918 23.2678 0.726533C22.8008 0.261267 22.1681 -2.70493e-06 21.5086 0ZM8.42356 14.5498C8.55855 14.5498 8.69222 14.5763 8.81694 14.628C8.94166 14.6796 9.05498 14.7552 9.15043 14.8506C9.24589 14.946 9.32161 15.0592 9.37327 15.1838C9.42493 15.3084 9.45152 15.4419 9.45152 15.5768V21.5108C9.45247 21.646 9.42653 21.78 9.3752 21.905C9.32388 22.03 9.24819 22.1436 9.15255 22.2392C9.05691 22.3347 8.94321 22.4104 8.81806 22.4616C8.69291 22.5129 8.55882 22.5388 8.42356 22.5379H2.48424C2.34686 22.5417 2.21011 22.518 2.08208 22.4681C1.95405 22.4181 1.83733 22.3431 1.73883 22.2474C1.64033 22.1516 1.56205 22.0371 1.50861 21.9106C1.45517 21.7841 1.42767 21.6482 1.42772 21.5108V15.5768C1.42864 15.4398 1.4568 15.3043 1.51058 15.1783C1.56435 15.0522 1.64266 14.9381 1.74097 14.8425C1.83927 14.747 1.9556 14.6719 2.08319 14.6216C2.21079 14.5714 2.34711 14.5469 2.48424 14.5498H8.42356ZM8.42356 13.1233H2.48424C1.83029 13.1233 1.20271 13.3809 0.737635 13.8402C0.272562 14.2995 0.00751658 14.9235 0 15.5768L0 21.5108C-2.70735e-06 22.1698 0.2615 22.8018 0.727181 23.2684C1.19286 23.735 1.82472 23.9981 2.48424 24H8.42356C9.08373 23.9981 9.71633 23.7353 10.1831 23.2689C10.65 22.8025 10.913 22.1704 10.9149 21.5108V15.5768C10.913 14.9179 10.6497 14.2866 10.1827 13.8213C9.71569 13.3561 9.08308 13.0948 8.42356 13.0948V13.1233ZM23.2219 17.7664H19.3242V13.8722C19.3056 13.678 19.2152 13.4976 19.0707 13.3664C18.9262 13.2351 18.7378 13.1624 18.5425 13.1624C18.3472 13.1624 18.1589 13.2351 18.0144 13.3664C17.8698 13.4976 17.7795 13.678 17.7609 13.8722V17.7664H13.8632C13.6568 17.7664 13.4589 17.8483 13.313 17.9941C13.167 18.1399 13.0851 18.3377 13.0851 18.5438C13.0851 18.75 13.167 18.9478 13.313 19.0935C13.4589 19.2393 13.6568 19.3212 13.8632 19.3212H17.7609V23.2155C17.7504 23.3243 17.7629 23.4341 17.7974 23.5378C17.832 23.6416 17.8878 23.7369 17.9614 23.8179C18.035 23.8988 18.1248 23.9634 18.2248 24.0076C18.3249 24.0519 18.4331 24.0747 18.5425 24.0747C18.652 24.0747 18.7602 24.0519 18.8602 24.0076C18.9603 23.9634 19.05 23.8988 19.1236 23.8179C19.1972 23.7369 19.2531 23.6416 19.2876 23.5378C19.3222 23.4341 19.3346 23.3243 19.3242 23.2155V19.3212H23.2219C23.4283 19.3212 23.6262 19.2393 23.7721 19.0935C23.918 18.9478 24 18.75 24 18.5438C24 18.3377 23.918 18.1399 23.7721 17.9941C23.6262 17.8483 23.4283 17.7664 23.2219 17.7664Z" fill="white" stroke="white" stroke-width="4" mask="url(#path-1-inside-1_1_45760)"/>
</g>
<defs>
<clipPath id="clip0_1_45760">
<rect width="24" height="24" fill="white"/>
</clipPath>
</defs>
</svg>
