<svg width="24" height="24" viewBox="0 0 24 24" fill="none" xmlns="http://www.w3.org/2000/svg">
<g opacity="0.75" clip-path="url(#clip0_1_45784)">
<path d="M23.2496 2.70141C23.4746 2.70141 23.6246 2.55141 23.6246 2.32641V1.46391C23.6246 0.826406 23.1746 0.376406 22.5371 0.376406H21.7496C21.1496 0.376406 20.6621 0.863906 20.6621 1.46391V1.87641C20.3246 1.87641 20.0246 1.80141 19.7246 1.72641L13.7246 0.413906C13.0871 0.301406 12.4121 0.376406 11.8121 0.638906L8.43711 2.21391C8.24961 2.28891 8.17461 2.51391 8.24961 2.70141C8.36211 3.00141 8.69961 2.88891 8.73711 2.88891L12.1121 1.31391C12.5996 1.12641 13.0871 1.05141 13.5746 1.16391L19.5746 2.47641C19.8746 2.55141 20.2496 2.58891 20.6621 2.62641V7.87641C20.0621 7.83891 18.7121 8.3639 18.7121 8.3639C18.2621 8.51391 17.7371 8.58891 17.1746 8.58891H13.9121C13.4996 8.58891 13.1621 8.25141 13.1621 7.83891C13.1621 7.42641 13.4996 7.08891 13.9121 7.08891H15.4121C15.9371 7.08891 16.3871 6.75141 16.5371 6.26391C16.6871 5.77641 16.4996 5.25141 16.0871 4.98891L13.7621 3.41391C13.6871 3.41391 13.6121 3.37641 13.5371 3.37641H3.03711C2.39961 3.37641 1.91211 3.86391 1.91211 4.50141V9.75141C1.91211 9.97641 2.06211 10.1264 2.28711 10.1264C2.51211 10.1264 2.66211 9.97641 2.66211 9.75141V4.50141C2.66211 4.27641 2.81211 4.12641 3.03711 4.12641H13.4246L15.6746 5.62641C15.8996 5.77641 15.8621 6.00141 15.8246 6.07641C15.7871 6.15141 15.7121 6.37641 15.4121 6.37641H13.9121C13.0871 6.37641 12.4121 7.05141 12.4121 7.87641C12.4121 8.70141 13.0871 9.37641 13.9121 9.37641H17.1746C17.8121 9.37641 18.4121 9.26391 18.9371 9.07641C18.9371 9.07641 20.2121 8.55141 20.6621 8.62641V9.03891C20.6621 9.63891 21.1496 10.1264 21.7496 10.1264H22.5371C23.1371 10.1264 23.6246 9.63891 23.6246 9.03891V3.75141C23.6246 3.52641 23.4746 3.37641 23.2496 3.37641C23.0246 3.37641 22.8746 3.52641 22.8746 3.75141V9.03891C22.8746 9.18891 22.7621 9.37641 22.5371 9.37641H21.7496C21.5996 9.37641 21.4121 9.26391 21.4121 9.03891V1.46391C21.4121 1.31391 21.5246 1.12641 21.7496 1.12641H22.5371C22.7246 1.12641 22.8746 1.27641 22.8746 1.46391V2.32641C22.8746 2.51391 23.0246 2.70141 23.2496 2.70141ZM17.2871 11.6264C17.5121 11.6264 17.6621 11.4764 17.6621 11.2514C17.6621 11.0264 17.8121 10.8764 18.0371 10.8764C18.2621 10.8764 18.4121 10.7264 18.4121 10.5014C18.4121 10.2764 18.2621 10.1264 18.0371 10.1264C17.5496 10.1264 17.1371 10.4264 16.9871 10.8764H15.0371C14.8121 10.8764 14.6621 11.0264 14.6621 11.2514C14.6621 11.4764 14.8121 11.6264 15.0371 11.6264H17.2871Z" fill="white"/>
<path d="M14.2496 5.25C14.2496 5.025 14.0996 4.875 13.8746 4.875H4.53711C4.31211 4.875 4.16211 5.025 4.16211 5.25C4.16211 5.475 4.01211 5.625 3.78711 5.625C3.56211 5.625 3.41211 5.775 3.41211 6V10.5C3.41211 10.725 3.56211 10.875 3.78711 10.875C4.01211 10.875 4.16211 11.025 4.16211 11.25C4.16211 11.475 4.31211 11.625 4.53711 11.625H13.5746C13.7996 11.625 13.9496 11.475 13.9496 11.25C13.9496 11.025 13.7996 10.875 13.5746 10.875H4.83711C4.72461 10.5375 4.46211 10.3125 4.16211 10.2V6.3C4.49961 6.1875 4.72461 5.925 4.83711 5.625H13.8746C14.0621 5.625 14.2496 5.475 14.2496 5.25ZM6.33711 16.5C5.69961 16.275 5.06211 16.2375 4.42461 16.425C4.23711 16.4625 4.08711 16.6875 4.16211 16.875C4.19961 17.0625 4.42461 17.2125 4.61211 17.1375C5.09961 17.025 5.54961 17.025 6.07461 17.2125L6.63711 17.4C6.67461 17.4 7.01211 17.475 7.12461 17.175C7.19961 16.9875 7.08711 16.7625 6.89961 16.6875L6.33711 16.5Z" fill="white"/>
<path d="M20.7379 15.675C20.3629 15.375 19.8754 15.3 19.4254 15.4125L13.8754 17.625C13.8004 16.8375 13.2004 16.275 12.3754 16.275H10.5754C10.0129 16.275 9.48789 16.2 9.03789 16.0125L6.30039 15.1125C5.58789 14.85 4.83789 14.85 4.12539 15.1125L3.33789 15.375V15C3.33789 14.3625 2.85039 13.875 2.21289 13.875H1.46289C0.825391 13.875 0.337891 14.3625 0.337891 15V15.75C0.337891 15.975 0.487891 16.125 0.712891 16.125C0.937891 16.125 1.08789 15.975 1.08789 15.75V15C1.08789 14.775 1.23789 14.625 1.46289 14.625H2.21289C2.43789 14.625 2.58789 14.775 2.58789 15V22.5C2.58789 22.725 2.43789 22.875 2.21289 22.875H1.46289C1.23789 22.875 1.08789 22.725 1.08789 22.5V17.1C1.08789 16.875 0.937891 16.725 0.712891 16.725C0.487891 16.725 0.337891 16.875 0.337891 17.1V22.5C0.337891 23.1375 0.825391 23.625 1.46289 23.625H2.21289C2.85039 23.625 3.33789 23.1375 3.33789 22.5V22.0125C3.33789 22.0125 4.98789 21.2625 6.82539 21.825L9.63789 22.65C10.0129 22.725 11.4379 22.95 12.7129 22.425L15.0754 21.15C15.2629 21.0375 15.3379 20.8125 15.2254 20.625C15.1129 20.4375 14.8879 20.3625 14.7004 20.475L12.5254 21.75C11.7004 22.0875 10.8004 22.1625 9.93789 21.9375L7.12539 21.1125C5.28789 20.55 3.41289 21.225 3.41289 21.225V16.2L4.42539 15.825C4.98789 15.6375 5.51289 15.6375 6.11289 15.825L8.85039 16.725C9.37539 16.9125 9.97539 17.025 10.6129 17.025H12.4129C12.8254 17.025 13.1629 17.3625 13.1629 17.775C13.1629 18.1875 12.8254 18.525 12.4129 18.525H8.28789C8.06289 18.525 7.91289 18.675 7.91289 18.9C7.91289 19.125 8.06289 19.275 8.28789 19.275H12.4129C12.9754 19.275 13.4629 18.975 13.7254 18.525L19.6504 16.1625C20.2129 15.975 20.5879 16.65 20.5879 16.9125C20.5879 17.2125 20.4004 17.5125 20.1004 17.625L18.3754 18.5625C18.1879 18.675 18.1129 18.9 18.2254 19.0875C18.3754 19.35 18.6754 19.275 18.7504 19.2375L20.4754 18.3C21.0004 18.0375 21.3754 17.5125 21.3754 16.875C21.3379 16.425 21.1129 15.975 20.7379 15.675Z" fill="white"/>
<path d="M17.0621 19.275L16.3496 19.65C16.1621 19.7625 16.0871 19.9875 16.1996 20.175C16.3496 20.4375 16.6496 20.3625 16.7246 20.325L17.4371 19.95C17.6246 19.8375 17.6996 19.6125 17.5871 19.425C17.4746 19.2375 17.2496 19.1625 17.0621 19.275ZM5.66211 7.125H6.03711C6.26211 7.125 6.41211 6.975 6.41211 6.75C6.41211 6.525 6.26211 6.375 6.03711 6.375H5.54961C5.17461 6.375 4.91211 6.6375 4.91211 7.0125V7.5C4.91211 7.725 5.06211 7.875 5.28711 7.875C5.51211 7.875 5.66211 7.725 5.66211 7.5V7.125ZM5.28711 8.625C5.06211 8.625 4.91211 8.775 4.91211 9V9.75C4.91211 9.975 5.06211 10.125 5.28711 10.125C5.51211 10.125 5.66211 9.975 5.66211 9.75V9C5.66211 8.775 5.51211 8.625 5.28711 8.625ZM3.03711 13.125H18.7871C19.4246 13.125 19.9121 12.6375 19.9121 12V9.75C19.9121 9.525 19.7621 9.375 19.5371 9.375C19.3121 9.375 19.1621 9.525 19.1621 9.75V12C19.1621 12.225 19.0121 12.375 18.7871 12.375H3.03711C2.81211 12.375 2.66211 12.225 2.66211 12V11.25C2.66211 11.025 2.51211 10.875 2.28711 10.875C2.06211 10.875 1.91211 11.025 1.91211 11.25V12C1.91211 12.6375 2.39961 13.125 3.03711 13.125Z" fill="white"/>
</g>
<defs>
<clipPath id="clip0_1_45784">
<rect width="24" height="24" fill="white"/>
</clipPath>
</defs>
</svg>
