<svg width="25" height="25" viewBox="0 0 25 25" fill="none" xmlns="http://www.w3.org/2000/svg">
<g opacity="0.75" clip-path="url(#clip0_46_21907)">
<path d="M16.6668 1.04102H4.16683C3.01579 1.04102 2.0835 1.97331 2.0835 3.12435V17.7077H4.16683V3.12435H16.6668V1.04102ZM19.7918 5.20768H8.3335C7.18245 5.20768 6.25016 6.13997 6.25016 7.29102V21.8743C6.25016 23.0254 7.18245 23.9577 8.3335 23.9577H19.7918C20.9429 23.9577 21.8752 23.0254 21.8752 21.8743V7.29102C21.8752 6.13997 20.9429 5.20768 19.7918 5.20768ZM19.7918 21.8743H8.3335V7.29102H19.7918V21.8743Z" fill="white"/>
<path d="M16.6663 1.04297H4.16634C3.0153 1.04297 2.08301 1.97526 2.08301 3.1263V17.7096H4.16634V3.1263H16.6663V1.04297ZM19.7913 5.20964H8.33301C7.18197 5.20964 6.24967 6.14193 6.24967 7.29297V21.8763C6.24967 23.0273 7.18197 23.9596 8.33301 23.9596H19.7913C20.9424 23.9596 21.8747 23.0273 21.8747 21.8763V7.29297C21.8747 6.14193 20.9424 5.20964 19.7913 5.20964ZM19.7913 21.8763H8.33301V7.29297H19.7913V21.8763Z" fill="white"/>
</g>
<defs>
<clipPath id="clip0_46_21907">
<rect width="25" height="25" fill="white"/>
</clipPath>
</defs>
</svg>
