<svg width="48" height="48" viewBox="0 0 48 48" fill="none" xmlns="http://www.w3.org/2000/svg">
<path d="M36.2998 18.2889L35.6998 36.4494C35.6487 38.0048 34.9935 39.479 33.8733 40.5592C32.753 41.6393 31.256 42.2405 29.6998 42.2349H18.2998C16.7446 42.2405 15.2484 41.6402 14.1284 40.5613C13.0083 39.4824 12.3524 38.0097 12.2998 36.4554L11.6998 18.2889C11.6867 17.8911 11.8321 17.5044 12.1041 17.2138C12.3762 16.9232 12.7525 16.7526 13.1503 16.7394C13.5481 16.7263 13.9349 16.8718 14.2255 17.1438C14.516 17.4158 14.6867 17.7921 14.6998 18.1899L15.2998 36.3549C15.3297 37.1304 15.6589 37.8641 16.2183 38.402C16.7777 38.9398 17.5238 39.24 18.2998 39.2394H29.6998C30.4768 39.24 31.2238 38.939 31.7833 38.3998C32.3429 37.8607 32.6714 37.1255 32.6998 36.3489L33.2998 18.1899C33.3129 17.7921 33.4835 17.4158 33.7741 17.1438C34.0647 16.8718 34.4515 16.7263 34.8493 16.7394C35.2471 16.7526 35.6234 16.9232 35.8955 17.2138C36.1675 17.5044 36.3129 17.8911 36.2998 18.2889ZM38.2843 12.2454C38.2843 12.6433 38.1263 13.0248 37.845 13.3061C37.5637 13.5874 37.1821 13.7454 36.7843 13.7454H11.2168C10.819 13.7454 10.4374 13.5874 10.1561 13.3061C9.87483 13.0248 9.7168 12.6433 9.7168 12.2454C9.7168 11.8476 9.87483 11.4661 10.1561 11.1848C10.4374 10.9035 10.819 10.7454 11.2168 10.7454H15.8668C16.3421 10.7467 16.8008 10.5711 17.1538 10.2528C17.5067 9.93454 17.7286 9.49631 17.7763 9.02344C17.887 7.91416 18.4067 6.88583 19.2341 6.1388C20.0616 5.39176 21.1375 4.97954 22.2523 4.98244H25.7473C26.8621 4.97954 27.938 5.39176 28.7655 6.1388C29.5929 6.88583 30.1126 7.91416 30.2233 9.02344C30.271 9.49631 30.4929 9.93454 30.8458 10.2528C31.1988 10.5711 31.6575 10.7467 32.1328 10.7454H36.7828C37.1806 10.7454 37.5622 10.9035 37.8435 11.1848C38.1248 11.4661 38.2828 11.8476 38.2828 12.2454H38.2843ZM20.3803 10.7454H27.6223C27.4252 10.2951 27.2963 9.81781 27.2398 9.32944C27.2026 8.9597 27.0296 8.61692 26.7541 8.3675C26.4786 8.11809 26.1204 7.9798 25.7488 7.97944H22.2538C21.8822 7.9798 21.524 8.11809 21.2485 8.3675C20.973 8.61692 20.8 8.9597 20.7628 9.32944C20.7058 9.81789 20.5779 10.2951 20.3803 10.7454ZM21.8908 33.4719V20.6994C21.8908 20.3016 21.7328 19.9201 21.4515 19.6388C21.1702 19.3575 20.7886 19.1994 20.3908 19.1994C19.993 19.1994 19.6114 19.3575 19.3301 19.6388C19.0488 19.9201 18.8908 20.3016 18.8908 20.6994V33.4779C18.8908 33.8758 19.0488 34.2573 19.3301 34.5386C19.6114 34.8199 19.993 34.9779 20.3908 34.9779C20.7886 34.9779 21.1702 34.8199 21.4515 34.5386C21.7328 34.2573 21.8908 33.8758 21.8908 33.4779V33.4719ZM29.1118 33.4719V20.6994C29.1118 20.3016 28.9538 19.9201 28.6725 19.6388C28.3912 19.3575 28.0096 19.1994 27.6118 19.1994C27.214 19.1994 26.8324 19.3575 26.5511 19.6388C26.2698 19.9201 26.1118 20.3016 26.1118 20.6994V33.4779C26.1118 33.8758 26.2698 34.2573 26.5511 34.5386C26.8324 34.8199 27.214 34.9779 27.6118 34.9779C28.0096 34.9779 28.3912 34.8199 28.6725 34.5386C28.9538 34.2573 29.1118 33.8758 29.1118 33.4779V33.4719Z" fill="white"/>
<path d="M36.2998 18.2909L35.6998 36.4514C35.6487 38.0067 34.9935 39.4809 33.8733 40.5611C32.753 41.6413 31.256 42.2424 29.6998 42.2369H18.2998C16.7446 42.2425 15.2484 41.6422 14.1284 40.5633C13.0083 39.4844 12.3524 38.0117 12.2998 36.4574L11.6998 18.2909C11.6867 17.8931 11.8321 17.5063 12.1041 17.2157C12.3762 16.9251 12.7525 16.7545 13.1503 16.7414C13.5481 16.7283 13.9349 16.8737 14.2255 17.1457C14.516 17.4177 14.6867 17.7941 14.6998 18.1919L15.2998 36.3569C15.3297 37.1323 15.6589 37.8661 16.2183 38.4039C16.7777 38.9418 17.5238 39.242 18.2998 39.2414H29.6998C30.4768 39.2419 31.2238 38.9409 31.7833 38.4018C32.3429 37.8626 32.6714 37.1274 32.6998 36.3509L33.2998 18.1919C33.3129 17.7941 33.4835 17.4177 33.7741 17.1457C34.0647 16.8737 34.4515 16.7283 34.8493 16.7414C35.2471 16.7545 35.6234 16.9251 35.8955 17.2157C36.1675 17.5063 36.3129 17.8931 36.2998 18.2909ZM38.2843 12.2474C38.2843 12.6452 38.1263 13.0267 37.845 13.308C37.5637 13.5894 37.1821 13.7474 36.7843 13.7474H11.2168C10.819 13.7474 10.4374 13.5894 10.1561 13.308C9.87483 13.0267 9.7168 12.6452 9.7168 12.2474C9.7168 11.8496 9.87483 11.468 10.1561 11.1867C10.4374 10.9054 10.819 10.7474 11.2168 10.7474H15.8668C16.3421 10.7487 16.8008 10.5731 17.1538 10.2548C17.5067 9.93649 17.7286 9.49827 17.7763 9.02539C17.887 7.91612 18.4067 6.88779 19.2341 6.14075C20.0616 5.39372 21.1375 4.98149 22.2523 4.98439H25.7473C26.8621 4.98149 27.938 5.39372 28.7655 6.14075C29.5929 6.88779 30.1126 7.91612 30.2233 9.02539C30.271 9.49827 30.4929 9.93649 30.8458 10.2548C31.1988 10.5731 31.6575 10.7487 32.1328 10.7474H36.7828C37.1806 10.7474 37.5622 10.9054 37.8435 11.1867C38.1248 11.468 38.2828 11.8496 38.2828 12.2474H38.2843ZM20.3803 10.7474H27.6223C27.4252 10.297 27.2963 9.81977 27.2398 9.33139C27.2026 8.96165 27.0296 8.61887 26.7541 8.36946C26.4786 8.12004 26.1204 7.98176 25.7488 7.98139H22.2538C21.8822 7.98176 21.524 8.12004 21.2485 8.36946C20.973 8.61887 20.8 8.96165 20.7628 9.33139C20.7058 9.81984 20.5779 10.2971 20.3803 10.7474ZM21.8908 33.4739V20.7014C21.8908 20.3036 21.7328 19.922 21.4515 19.6407C21.1702 19.3594 20.7886 19.2014 20.3908 19.2014C19.993 19.2014 19.6114 19.3594 19.3301 19.6407C19.0488 19.922 18.8908 20.3036 18.8908 20.7014V33.4799C18.8908 33.8777 19.0488 34.2592 19.3301 34.5405C19.6114 34.8218 19.993 34.9799 20.3908 34.9799C20.7886 34.9799 21.1702 34.8218 21.4515 34.5405C21.7328 34.2592 21.8908 33.8777 21.8908 33.4799V33.4739ZM29.1118 33.4739V20.7014C29.1118 20.3036 28.9538 19.922 28.6725 19.6407C28.3912 19.3594 28.0096 19.2014 27.6118 19.2014C27.214 19.2014 26.8324 19.3594 26.5511 19.6407C26.2698 19.922 26.1118 20.3036 26.1118 20.7014V33.4799C26.1118 33.8777 26.2698 34.2592 26.5511 34.5405C26.8324 34.8218 27.214 34.9799 27.6118 34.9799C28.0096 34.9799 28.3912 34.8218 28.6725 34.5405C28.9538 34.2592 29.1118 33.8777 29.1118 33.4799V33.4739Z" fill="white"/>
</svg>
