<svg width="25" height="25" viewBox="0 0 25 25" fill="none" xmlns="http://www.w3.org/2000/svg">
<g opacity="0.75">
<path d="M18.9063 9.52618L18.5938 18.9848C18.5672 19.7948 18.226 20.5627 17.6425 21.1253C17.0591 21.6878 16.2794 22.0009 15.4688 21.9981H9.53135C8.72137 22.001 7.94209 21.6883 7.35873 21.1264C6.77536 20.5644 6.43376 19.7974 6.40635 18.9879L6.09385 9.52618C6.08701 9.31898 6.16276 9.11755 6.30444 8.9662C6.44612 8.81485 6.64212 8.72599 6.84932 8.71915C7.05652 8.71231 7.25795 8.78806 7.40929 8.92974C7.56064 9.07142 7.64951 9.26742 7.65635 9.47462L7.96885 18.9356C7.98441 19.3394 8.15587 19.7216 8.44723 20.0017C8.73858 20.2819 9.12716 20.4382 9.53135 20.4379H15.4688C15.8736 20.4382 16.2626 20.2814 16.554 20.0006C16.8455 19.7198 17.0166 19.3369 17.0313 18.9324L17.3438 9.47462C17.3507 9.26742 17.4396 9.07142 17.5909 8.92974C17.7422 8.78806 17.9437 8.71231 18.1509 8.71915C18.3581 8.72599 18.5541 8.81485 18.6958 8.9662C18.8374 9.11755 18.9132 9.31898 18.9063 9.52618ZM19.9399 6.37852C19.9399 6.58572 19.8576 6.78444 19.7111 6.93095C19.5646 7.07746 19.3659 7.15977 19.1587 7.15977H5.84229C5.63508 7.15977 5.43637 7.07746 5.28986 6.93095C5.14334 6.78444 5.06104 6.58572 5.06104 6.37852C5.06104 6.17132 5.14334 5.97261 5.28986 5.8261C5.43637 5.67958 5.63508 5.59727 5.84229 5.59727H8.26416C8.5117 5.59794 8.75063 5.50649 8.93446 5.34071C9.11829 5.17493 9.23386 4.94669 9.25869 4.7004C9.31634 4.12265 9.58702 3.58706 10.018 3.19798C10.4489 2.8089 11.0093 2.5942 11.5899 2.59571H13.4103C13.9909 2.5942 14.5512 2.8089 14.9822 3.19798C15.4132 3.58706 15.6839 4.12265 15.7415 4.7004C15.7663 4.94669 15.8819 5.17493 16.0657 5.34071C16.2496 5.50649 16.4885 5.59794 16.736 5.59727H19.1579C19.3651 5.59727 19.5638 5.67958 19.7103 5.8261C19.8568 5.97261 19.9392 6.17132 19.9392 6.37852H19.9399ZM10.6149 5.59727H14.3868C14.2842 5.3627 14.217 5.11414 14.1876 4.85977C14.1682 4.6672 14.0781 4.48867 13.9346 4.35877C13.7912 4.22886 13.6046 4.15684 13.411 4.15665H11.5907C11.3972 4.15684 11.2106 4.22886 11.0671 4.35877C10.9237 4.48867 10.8335 4.6672 10.8142 4.85977C10.7845 5.11418 10.7179 5.36274 10.6149 5.59727ZM11.4017 17.434V10.7816C11.4017 10.5744 11.3193 10.3757 11.1728 10.2292C11.0263 10.0827 10.8276 10.0004 10.6204 10.0004C10.4132 10.0004 10.2145 10.0827 10.068 10.2292C9.92147 10.3757 9.83916 10.5744 9.83916 10.7816V17.4371C9.83916 17.6443 9.92147 17.843 10.068 17.9895C10.2145 18.1361 10.4132 18.2184 10.6204 18.2184C10.8276 18.2184 11.0263 18.1361 11.1728 17.9895C11.3193 17.843 11.4017 17.6443 11.4017 17.4371V17.434ZM15.1626 17.434V10.7816C15.1626 10.5744 15.0803 10.3757 14.9338 10.2292C14.7873 10.0827 14.5885 10.0004 14.3813 10.0004C14.1741 10.0004 13.9754 10.0827 13.8289 10.2292C13.6824 10.3757 13.6001 10.5744 13.6001 10.7816V17.4371C13.6001 17.6443 13.6824 17.843 13.8289 17.9895C13.9754 18.1361 14.1741 18.2184 14.3813 18.2184C14.5885 18.2184 14.7873 18.1361 14.9338 17.9895C15.0803 17.843 15.1626 17.6443 15.1626 17.4371V17.434Z" fill="white"/>
<path d="M18.9063 9.52618L18.5938 18.9848C18.5672 19.7948 18.226 20.5627 17.6425 21.1253C17.0591 21.6878 16.2794 22.0009 15.4688 21.9981H9.53135C8.72137 22.001 7.94209 21.6883 7.35873 21.1264C6.77536 20.5644 6.43376 19.7974 6.40635 18.9879L6.09385 9.52618C6.08701 9.31898 6.16276 9.11755 6.30444 8.9662C6.44612 8.81485 6.64212 8.72599 6.84932 8.71915C7.05652 8.71231 7.25795 8.78806 7.40929 8.92974C7.56064 9.07142 7.64951 9.26742 7.65635 9.47462L7.96885 18.9356C7.98441 19.3394 8.15587 19.7216 8.44723 20.0017C8.73858 20.2819 9.12716 20.4382 9.53135 20.4379H15.4688C15.8736 20.4382 16.2626 20.2814 16.554 20.0006C16.8455 19.7198 17.0166 19.3369 17.0313 18.9324L17.3438 9.47462C17.3507 9.26742 17.4396 9.07142 17.5909 8.92974C17.7422 8.78806 17.9437 8.71231 18.1509 8.71915C18.3581 8.72599 18.5541 8.81485 18.6958 8.9662C18.8374 9.11755 18.9132 9.31898 18.9063 9.52618ZM19.9399 6.37852C19.9399 6.58572 19.8576 6.78444 19.7111 6.93095C19.5646 7.07746 19.3659 7.15977 19.1587 7.15977H5.84229C5.63508 7.15977 5.43637 7.07746 5.28986 6.93095C5.14334 6.78444 5.06104 6.58572 5.06104 6.37852C5.06104 6.17132 5.14334 5.97261 5.28986 5.8261C5.43637 5.67958 5.63508 5.59727 5.84229 5.59727H8.26416C8.5117 5.59794 8.75063 5.50649 8.93446 5.34071C9.11829 5.17493 9.23386 4.94669 9.25869 4.7004C9.31634 4.12265 9.58702 3.58706 10.018 3.19798C10.4489 2.8089 11.0093 2.5942 11.5899 2.59571H13.4103C13.9909 2.5942 14.5512 2.8089 14.9822 3.19798C15.4132 3.58706 15.6839 4.12265 15.7415 4.7004C15.7663 4.94669 15.8819 5.17493 16.0657 5.34071C16.2496 5.50649 16.4885 5.59794 16.736 5.59727H19.1579C19.3651 5.59727 19.5638 5.67958 19.7103 5.8261C19.8568 5.97261 19.9392 6.17132 19.9392 6.37852H19.9399ZM10.6149 5.59727H14.3868C14.2842 5.3627 14.217 5.11414 14.1876 4.85977C14.1682 4.6672 14.0781 4.48867 13.9346 4.35877C13.7912 4.22886 13.6046 4.15684 13.411 4.15665H11.5907C11.3972 4.15684 11.2106 4.22886 11.0671 4.35877C10.9237 4.48867 10.8335 4.6672 10.8142 4.85977C10.7845 5.11418 10.7179 5.36274 10.6149 5.59727ZM11.4017 17.434V10.7816C11.4017 10.5744 11.3193 10.3757 11.1728 10.2292C11.0263 10.0827 10.8276 10.0004 10.6204 10.0004C10.4132 10.0004 10.2145 10.0827 10.068 10.2292C9.92147 10.3757 9.83916 10.5744 9.83916 10.7816V17.4371C9.83916 17.6443 9.92147 17.843 10.068 17.9895C10.2145 18.1361 10.4132 18.2184 10.6204 18.2184C10.8276 18.2184 11.0263 18.1361 11.1728 17.9895C11.3193 17.843 11.4017 17.6443 11.4017 17.4371V17.434ZM15.1626 17.434V10.7816C15.1626 10.5744 15.0803 10.3757 14.9338 10.2292C14.7873 10.0827 14.5885 10.0004 14.3813 10.0004C14.1741 10.0004 13.9754 10.0827 13.8289 10.2292C13.6824 10.3757 13.6001 10.5744 13.6001 10.7816V17.4371C13.6001 17.6443 13.6824 17.843 13.8289 17.9895C13.9754 18.1361 14.1741 18.2184 14.3813 18.2184C14.5885 18.2184 14.7873 18.1361 14.9338 17.9895C15.0803 17.843 15.1626 17.6443 15.1626 17.4371V17.434Z" fill="white"/>
</g>
</svg>
