<svg width="39" height="40" viewBox="0 0 39 40" fill="none" xmlns="http://www.w3.org/2000/svg">
<g opacity="0.25">
<path d="M19.5008 24.999C19.2869 25.0003 19.0749 24.9582 18.8769 24.8753C18.679 24.7923 18.4989 24.6701 18.347 24.5157L11.847 17.849C11.541 17.5352 11.3691 17.1095 11.3691 16.6657C11.3691 16.2218 11.541 15.7962 11.847 15.4823C12.153 15.1685 12.568 14.9922 13.0008 14.9922C13.4335 14.9922 13.8485 15.1685 14.1545 15.4823L19.5008 20.9823L24.847 15.499C25.1579 15.226 25.5578 15.0833 25.9668 15.0995C26.3757 15.1157 26.7637 15.2896 27.0531 15.5864C27.3425 15.8832 27.512 16.2811 27.5278 16.7006C27.5436 17.12 27.4045 17.5302 27.1383 17.849L20.6383 24.5157C20.3356 24.8236 19.9271 24.9972 19.5008 24.999Z" fill="white"/>
</g>
</svg>
