<svg width="24" height="24" viewBox="0 0 24 24" fill="none" xmlns="http://www.w3.org/2000/svg">
<g opacity="0.75">
<path fill-rule="evenodd" clip-rule="evenodd" d="M4.51417 12.9166L6.4192 14.8216L7.46912 13.8166L4.27411 10.6216H3.22419L0.0291805 13.8166L1.09412 14.8816L2.99915 12.9766V15.7516C2.99717 16.2446 3.09283 16.7331 3.28058 17.189C3.46834 17.6449 3.74441 18.0591 4.09302 18.4077C4.44164 18.7563 4.85591 19.0324 5.31177 19.2202C5.76764 19.4079 6.25614 19.5036 6.74915 19.5016H15.0742C15.2272 20.2203 15.5808 20.8808 16.0941 21.4066C16.6217 21.9288 17.2914 22.2841 18.0197 22.4282C18.7479 22.5722 19.5024 22.4986 20.1891 22.2166C20.8735 21.932 21.4581 21.4509 21.8693 20.8342C22.2804 20.2175 22.4996 19.4928 22.4992 18.7516C22.5102 18.2372 22.4132 17.7262 22.2142 17.2516C22.0272 16.797 21.7519 16.384 21.4044 16.0364C21.0568 15.6889 20.6437 15.4136 20.1891 15.2266C19.7146 15.0277 19.2035 14.9306 18.6891 14.9416C17.9479 14.9411 17.2232 15.1603 16.6065 15.5714C15.9897 15.9825 15.5088 16.5673 15.2242 17.2516C15.1316 17.4741 15.0613 17.7053 15.0142 17.9416H6.76417C6.16743 17.9416 5.59512 17.7046 5.17316 17.2826C4.75121 16.8607 4.51417 16.2883 4.51417 15.6916V12.9166ZM16.8892 19.9366C16.6444 19.5675 16.5139 19.1345 16.5142 18.6916C16.514 18.2846 16.6242 17.8852 16.8331 17.5359C17.042 17.1866 17.3419 16.9005 17.7005 16.7081C18.0592 16.5157 18.4633 16.4241 18.8698 16.4433C19.2764 16.4624 19.6701 16.5914 20.0091 16.8166C20.3819 17.0682 20.6737 17.4225 20.8492 17.8366C21.0157 18.2453 21.0574 18.6942 20.9691 19.1266C20.8844 19.5646 20.6706 19.9672 20.3552 20.2827C20.0397 20.5981 19.6372 20.8119 19.1992 20.8966C18.7668 20.9849 18.318 20.9431 17.9092 20.7766C17.4952 20.6012 17.1408 20.3093 16.8892 19.9366ZM7.43903 4.44159C7.29247 3.72057 6.93797 3.05825 6.41913 2.53656C5.71357 1.8351 4.75902 1.44146 3.7641 1.44159C3.0229 1.4411 2.29817 1.66024 1.68146 2.07138C1.06474 2.48252 0.58363 3.06719 0.299011 3.75156C0.0127029 4.43759 -0.0631218 5.19326 0.0809326 5.92255C0.224987 6.65184 0.582504 7.32188 1.10815 7.84753C1.6338 8.37319 2.30385 8.7307 3.03314 8.87476C3.76243 9.01881 4.51801 8.94289 5.20404 8.65659C5.88484 8.3673 6.46803 7.88827 6.88403 7.27661C7.15704 6.87352 7.34581 6.41942 7.43903 5.94159H15.7641C16.3608 5.94159 16.9331 6.17863 17.3551 6.60059C17.7771 7.02254 18.0141 7.59485 18.0141 8.19159V10.9666L16.1091 9.06161L15.0441 10.1266L18.2391 13.3216H19.2891L22.4841 10.1266L21.4191 9.06161L19.5141 10.9666V8.19159C19.5161 7.69858 19.4204 7.21008 19.2327 6.75421C19.0449 6.29835 18.7688 5.88417 18.4202 5.53555C18.0716 5.18694 17.6573 4.91078 17.2015 4.72302C16.7456 4.53527 16.2571 4.43961 15.7641 4.44159H7.43903ZM1.52563 4.9682C1.57758 4.45147 1.80663 3.96865 2.17401 3.60159C2.54107 3.23421 3.02398 3.00507 3.54071 2.95312C4.05744 2.90118 4.57619 3.02962 5.00903 3.31659C5.38179 3.56819 5.67366 3.92249 5.84912 4.33658C6.01561 4.7453 6.05729 5.19414 5.96906 5.62656C5.88436 6.06454 5.67054 6.46716 5.3551 6.78259C5.03966 7.09803 4.63714 7.31185 4.19916 7.39655C3.76674 7.48479 3.3179 7.4431 2.90918 7.27661C2.49509 7.10115 2.1407 6.80937 1.8891 6.43661C1.60213 6.00377 1.47369 5.48493 1.52563 4.9682Z" fill="white"/>
</g>
</svg>
