<svg width="24" height="24" viewBox="0 0 24 24" fill="none" xmlns="http://www.w3.org/2000/svg">
<g opacity="0.75" clip-path="url(#clip0_1_45766)">
<path d="M18.7494 23.2496H5.24937C4.65264 23.2496 4.08034 23.0126 3.65838 22.5906C3.23643 22.1687 2.99937 21.5964 2.99937 20.9996V11.9996H1.49937C1.34915 11.9991 1.20255 11.9535 1.07856 11.8687C0.954563 11.7839 0.858892 11.6638 0.803939 11.524C0.748985 11.3842 0.737282 11.2311 0.770344 11.0846C0.803406 10.938 0.879711 10.8048 0.989373 10.7021L10.4994 1.89715C10.9154 1.51128 11.4619 1.29687 12.0294 1.29688C12.5968 1.29688 13.1433 1.51128 13.5594 1.89715L23.0094 10.7021C23.119 10.8048 23.1953 10.938 23.2284 11.0846C23.2615 11.2311 23.2498 11.3842 23.1948 11.524C23.1399 11.6638 23.0442 11.7839 22.9202 11.8687C22.7962 11.9535 22.6496 11.9991 22.4994 11.9996H20.9994V20.9996C20.9994 21.5964 20.7623 22.1687 20.3404 22.5906C19.9184 23.0126 19.3461 23.2496 18.7494 23.2496ZM3.41187 10.4996H3.74937C3.94829 10.4996 4.13905 10.5787 4.2797 10.7193C4.42036 10.86 4.49937 11.0507 4.49937 11.2496V20.9996C4.49937 21.1986 4.57839 21.3893 4.71904 21.53C4.85969 21.6706 5.05046 21.7496 5.24937 21.7496H18.7494C18.9483 21.7496 19.1391 21.6706 19.2797 21.53C19.4204 21.3893 19.4994 21.1986 19.4994 20.9996V11.2496C19.4994 11.0507 19.5784 10.86 19.719 10.7193C19.8597 10.5787 20.0505 10.4996 20.2494 10.4996H20.5869L12.5094 2.99965C12.3707 2.87103 12.1885 2.79956 11.9994 2.79956C11.8102 2.79956 11.6281 2.87103 11.4894 2.99965L3.41187 10.4996Z" fill="white" stroke="white" stroke-width="2"/>
</g>
<defs>
<clipPath id="clip0_1_45766">
<rect width="24" height="24" fill="white"/>
</clipPath>
</defs>
</svg>
