<svg width="415" height="24" viewBox="0 0 415 24" fill="none" xmlns="http://www.w3.org/2000/svg">
<g opacity="0.75">
<line opacity="0.5" x1="169" y1="12.5" x2="2.18557e-08" y2="12.5" stroke="white" stroke-dasharray="16 16"/>
<line opacity="0.5" x1="415" y1="12.5" x2="225" y2="12.5" stroke="white" stroke-dasharray="16 16"/>
<g opacity="0.5" clip-path="url(#clip0_46_22626)">
<path d="M187 12C187 13.9778 187.586 15.9112 188.685 17.5557C189.784 19.2002 191.346 20.4819 193.173 21.2388C195 21.9957 197.011 22.1937 198.951 21.8078C200.891 21.422 202.673 20.4696 204.071 19.0711C205.47 17.6725 206.422 15.8907 206.808 13.9509C207.194 12.0111 206.996 10.0004 206.239 8.17316C205.482 6.3459 204.2 4.78411 202.556 3.6853C200.911 2.58649 198.978 2 197 2C195.687 2 194.386 2.25865 193.173 2.7612C191.96 3.26375 190.858 4.00034 189.929 4.92893C189 5.85751 188.264 6.9599 187.761 8.17316C187.259 9.38642 187 10.6868 187 12ZM205 12C205 13.5822 204.531 15.129 203.652 16.4446C202.773 17.7602 201.523 18.7855 200.061 19.391C198.6 19.9965 196.991 20.155 195.439 19.8463C193.887 19.5376 192.462 18.7757 191.343 17.6568C190.224 16.538 189.462 15.1126 189.154 13.5607C188.845 12.0089 189.003 10.4003 189.609 8.93853C190.214 7.47672 191.24 6.22729 192.555 5.34824C193.871 4.46919 195.418 4 197 4C199.122 4 201.157 4.84285 202.657 6.34314C204.157 7.84343 205 9.87826 205 12Z" fill="white"/>
<path d="M196 9V11H194C193.735 11 193.48 11.1054 193.293 11.2929C193.105 11.4804 193 11.7348 193 12C193 12.2652 193.105 12.5196 193.293 12.7071C193.48 12.8946 193.735 13 194 13H196V15C196 15.2652 196.105 15.5196 196.293 15.7071C196.48 15.8946 196.735 16 197 16C197.265 16 197.52 15.8946 197.707 15.7071C197.895 15.5196 198 15.2652 198 15V13H200C200.265 13 200.52 12.8946 200.707 12.7071C200.895 12.5196 201 12.2652 201 12C201 11.7348 200.895 11.4804 200.707 11.2929C200.52 11.1054 200.265 11 200 11H198V9C198 8.73478 197.895 8.48043 197.707 8.29289C197.52 8.10536 197.265 8 197 8C196.735 8 196.48 8.10536 196.293 8.29289C196.105 8.48043 196 8.73478 196 9Z" fill="white"/>
</g>
</g>
<defs>
<clipPath id="clip0_46_22626">
<rect width="24" height="24" fill="white" transform="matrix(0 -1 1 0 185 24)"/>
</clipPath>
</defs>
</svg>
