<svg width="586" height="33" viewBox="0 0 586 33" fill="none" xmlns="http://www.w3.org/2000/svg">
<path d="M284.284 24.24C282.652 24.24 281.22 23.88 279.988 23.16C278.772 22.44 277.828 21.432 277.156 20.136C276.484 18.824 276.148 17.288 276.148 15.528C276.148 14.2 276.34 13.008 276.724 11.952C277.108 10.88 277.652 9.968 278.356 9.216C279.076 8.448 279.932 7.864 280.924 7.464C281.932 7.048 283.052 6.84 284.284 6.84C285.932 6.84 287.364 7.2 288.58 7.92C289.796 8.624 290.74 9.624 291.412 10.92C292.084 12.216 292.42 13.744 292.42 15.504C292.42 16.832 292.228 18.032 291.844 19.104C291.46 20.176 290.908 21.096 290.188 21.864C289.484 22.632 288.628 23.224 287.62 23.64C286.628 24.04 285.516 24.24 284.284 24.24ZM284.284 21.6C285.324 21.6 286.204 21.36 286.924 20.88C287.66 20.4 288.22 19.704 288.604 18.792C289.004 17.88 289.204 16.792 289.204 15.528C289.204 13.608 288.772 12.12 287.908 11.064C287.06 10.008 285.852 9.48 284.284 9.48C283.26 9.48 282.38 9.72 281.644 10.2C280.908 10.664 280.34 11.352 279.94 12.264C279.556 13.16 279.364 14.248 279.364 15.528C279.364 17.432 279.796 18.92 280.66 19.992C281.524 21.064 282.732 21.6 284.284 21.6ZM297.08 24.192C296.584 24.192 296.2 24.056 295.928 23.784C295.672 23.496 295.544 23.104 295.544 22.608V8.64C295.544 8.128 295.68 7.744 295.952 7.488C296.224 7.216 296.608 7.08 297.104 7.08H302.888C304.744 7.08 306.176 7.528 307.184 8.424C308.192 9.304 308.696 10.544 308.696 12.144C308.696 13.184 308.464 14.08 308 14.832C307.552 15.584 306.896 16.16 306.032 16.56C305.168 16.96 304.12 17.16 302.888 17.16L303.104 16.8H303.896C304.552 16.8 305.12 16.96 305.6 17.28C306.096 17.6 306.528 18.104 306.896 18.792L308.696 22.128C308.888 22.464 308.976 22.792 308.96 23.112C308.944 23.432 308.824 23.696 308.6 23.904C308.376 24.096 308.048 24.192 307.616 24.192C307.184 24.192 306.832 24.104 306.56 23.928C306.288 23.736 306.048 23.448 305.84 23.064L303.416 18.6C303.128 18.056 302.784 17.696 302.384 17.52C302 17.328 301.504 17.232 300.896 17.232H298.616V22.608C298.616 23.104 298.488 23.496 298.232 23.784C297.976 24.056 297.592 24.192 297.08 24.192ZM298.616 14.952H302.36C303.464 14.952 304.296 14.728 304.856 14.28C305.432 13.816 305.72 13.128 305.72 12.216C305.72 11.32 305.432 10.648 304.856 10.2C304.296 9.736 303.464 9.504 302.36 9.504H298.616V14.952Z" fill="white"/>
<line x1="4.37114e-08" y1="16.5" x2="259.557" y2="16.5" stroke="white"/>
<line x1="326.441" y1="16.5" x2="585.998" y2="16.5" stroke="white"/>
</svg>
