<svg width="51" height="38" viewBox="0 0 51 38" fill="none" xmlns="http://www.w3.org/2000/svg">
<g clip-path="url(#clip0_1_45856)">
<path d="M14.6071 21.7317L10.1614 26.1774C10.0007 26.338 9.78284 26.4281 9.5557 26.4281C9.32855 26.4281 9.1107 26.338 8.94998 26.1774L0.127124 17.3546C0.0827919 17.3122 0.0484953 17.2604 0.026744 17.2031C0.00499263 17.1458 -0.00366315 17.0843 0.00141001 17.0232L0.675696 12.646C0.681197 12.5417 0.725105 12.4431 0.798961 12.3693C0.872817 12.2954 0.971393 12.2515 1.0757 12.246L5.45284 11.5717C5.51396 11.5666 5.57544 11.5753 5.63279 11.5971C5.69013 11.6188 5.74189 11.6531 5.78427 11.6974L14.6071 20.5203C14.7676 20.681 14.8578 20.8989 14.8578 21.126C14.8578 21.3532 14.7676 21.571 14.6071 21.7317Z" stroke="#F8A831" stroke-width="1.71429" stroke-linecap="round" stroke-linejoin="round"/>
<path d="M4.12807 16.2679C4.44366 16.2679 4.6995 16.012 4.6995 15.6964C4.6995 15.3808 4.44366 15.125 4.12807 15.125C3.81248 15.125 3.55664 15.3808 3.55664 15.6964C3.55664 16.012 3.81248 16.2679 4.12807 16.2679Z" stroke="#F8A831" stroke-width="1.71429" stroke-linecap="round" stroke-linejoin="round"/>
</g>
<path d="M21.1134 17.324V21.2C21.1134 21.52 21.1814 21.748 21.3174 21.884C21.4534 22.012 21.6894 22.076 22.0254 22.076H22.8294V23H21.8454C21.2374 23 20.7814 22.86 20.4774 22.58C20.1734 22.3 20.0214 21.84 20.0214 21.2V17.324H19.1694V16.424H20.0214V14.768H21.1134V16.424H22.8294V17.324H21.1134ZM23.7445 19.688C23.7445 19.016 23.8805 18.428 24.1525 17.924C24.4245 17.412 24.7965 17.016 25.2685 16.736C25.7485 16.456 26.2805 16.316 26.8645 16.316C27.4405 16.316 27.9405 16.44 28.3645 16.688C28.7885 16.936 29.1045 17.248 29.3125 17.624V16.424H30.4165V23H29.3125V21.776C29.0965 22.16 28.7725 22.48 28.3405 22.736C27.9165 22.984 27.4205 23.108 26.8525 23.108C26.2685 23.108 25.7405 22.964 25.2685 22.676C24.7965 22.388 24.4245 21.984 24.1525 21.464C23.8805 20.944 23.7445 20.352 23.7445 19.688ZM29.3125 19.7C29.3125 19.204 29.2125 18.772 29.0125 18.404C28.8125 18.036 28.5405 17.756 28.1965 17.564C27.8605 17.364 27.4885 17.264 27.0805 17.264C26.6725 17.264 26.3005 17.36 25.9645 17.552C25.6285 17.744 25.3605 18.024 25.1605 18.392C24.9605 18.76 24.8605 19.192 24.8605 19.688C24.8605 20.192 24.9605 20.632 25.1605 21.008C25.3605 21.376 25.6285 21.66 25.9645 21.86C26.3005 22.052 26.6725 22.148 27.0805 22.148C27.4885 22.148 27.8605 22.052 28.1965 21.86C28.5405 21.66 28.8125 21.376 29.0125 21.008C29.2125 20.632 29.3125 20.196 29.3125 19.7ZM34.9739 16.316C35.5419 16.316 36.0379 16.44 36.4619 16.688C36.8939 16.936 37.2139 17.248 37.4219 17.624V16.424H38.5259V23.144C38.5259 23.744 38.3979 24.276 38.1419 24.74C37.8859 25.212 37.5179 25.58 37.0379 25.844C36.5659 26.108 36.0139 26.24 35.3819 26.24C34.5179 26.24 33.7979 26.036 33.2219 25.628C32.6459 25.22 32.3059 24.664 32.2019 23.96H33.2819C33.4019 24.36 33.6499 24.68 34.0259 24.92C34.4019 25.168 34.8539 25.292 35.3819 25.292C35.9819 25.292 36.4699 25.104 36.8459 24.728C37.2299 24.352 37.4219 23.824 37.4219 23.144V21.764C37.2059 22.148 36.8859 22.468 36.4619 22.724C36.0379 22.98 35.5419 23.108 34.9739 23.108C34.3899 23.108 33.8579 22.964 33.3779 22.676C32.9059 22.388 32.5339 21.984 32.2619 21.464C31.9899 20.944 31.8539 20.352 31.8539 19.688C31.8539 19.016 31.9899 18.428 32.2619 17.924C32.5339 17.412 32.9059 17.016 33.3779 16.736C33.8579 16.456 34.3899 16.316 34.9739 16.316ZM37.4219 19.7C37.4219 19.204 37.3219 18.772 37.1219 18.404C36.9219 18.036 36.6499 17.756 36.3059 17.564C35.9699 17.364 35.5979 17.264 35.1899 17.264C34.7819 17.264 34.4099 17.36 34.0739 17.552C33.7379 17.744 33.4699 18.024 33.2699 18.392C33.0699 18.76 32.9699 19.192 32.9699 19.688C32.9699 20.192 33.0699 20.632 33.2699 21.008C33.4699 21.376 33.7379 21.66 34.0739 21.86C34.4099 22.052 34.7819 22.148 35.1899 22.148C35.5979 22.148 35.9699 22.052 36.3059 21.86C36.6499 21.66 36.9219 21.376 37.1219 21.008C37.3219 20.632 37.4219 20.196 37.4219 19.7ZM43.1025 15.32V14.324H45.3585V23H44.2545V15.32H43.1025Z" fill="#F8A831"/>
<defs>
<clipPath id="clip0_1_45856">
<rect width="14.8578" height="14.8578" fill="white" transform="translate(0 11.5703)"/>
</clipPath>
</defs>
</svg>
