<svg width="55" height="38" viewBox="0 0 55 38" fill="none" xmlns="http://www.w3.org/2000/svg">
<g clip-path="url(#clip0_1_45870)">
<path d="M15.322 21.7317L10.8763 26.1774C10.7155 26.338 10.4977 26.4281 10.2705 26.4281C10.0434 26.4281 9.82554 26.338 9.66483 26.1774L0.841968 17.3546C0.797636 17.3122 0.763339 17.2604 0.741588 17.2031C0.719836 17.1458 0.711181 17.0843 0.716254 17.0232L1.39054 12.646C1.39604 12.5417 1.43995 12.4431 1.5138 12.3693C1.58766 12.2954 1.68624 12.2515 1.79054 12.246L6.16768 11.5717C6.2288 11.5666 6.29029 11.5753 6.34763 11.5971C6.40497 11.6188 6.45673 11.6531 6.49911 11.6974L15.322 20.5203C15.4825 20.681 15.5726 20.8989 15.5726 21.126C15.5726 21.3532 15.4825 21.571 15.322 21.7317Z" stroke="#50F635" stroke-width="1.71429" stroke-linecap="round" stroke-linejoin="round"/>
<path d="M4.84291 16.2679C5.1585 16.2679 5.41434 16.012 5.41434 15.6964C5.41434 15.3808 5.1585 15.125 4.84291 15.125C4.52732 15.125 4.27148 15.3808 4.27148 15.6964C4.27148 16.012 4.52732 16.2679 4.84291 16.2679Z" stroke="#50F635" stroke-width="1.71429" stroke-linecap="round" stroke-linejoin="round"/>
</g>
<path d="M21.8283 17.324V21.2C21.8283 21.52 21.8963 21.748 22.0323 21.884C22.1683 22.012 22.4043 22.076 22.7403 22.076H23.5443V23H22.5603C21.9523 23 21.4963 22.86 21.1923 22.58C20.8883 22.3 20.7363 21.84 20.7363 21.2V17.324H19.8843V16.424H20.7363V14.768H21.8283V16.424H23.5443V17.324H21.8283ZM24.4594 19.688C24.4594 19.016 24.5954 18.428 24.8674 17.924C25.1394 17.412 25.5114 17.016 25.9834 16.736C26.4634 16.456 26.9954 16.316 27.5794 16.316C28.1554 16.316 28.6554 16.44 29.0794 16.688C29.5034 16.936 29.8194 17.248 30.0274 17.624V16.424H31.1314V23H30.0274V21.776C29.8114 22.16 29.4874 22.48 29.0554 22.736C28.6314 22.984 28.1354 23.108 27.5674 23.108C26.9834 23.108 26.4554 22.964 25.9834 22.676C25.5114 22.388 25.1394 21.984 24.8674 21.464C24.5954 20.944 24.4594 20.352 24.4594 19.688ZM30.0274 19.7C30.0274 19.204 29.9274 18.772 29.7274 18.404C29.5274 18.036 29.2554 17.756 28.9114 17.564C28.5754 17.364 28.2034 17.264 27.7954 17.264C27.3874 17.264 27.0154 17.36 26.6794 17.552C26.3434 17.744 26.0754 18.024 25.8754 18.392C25.6754 18.76 25.5754 19.192 25.5754 19.688C25.5754 20.192 25.6754 20.632 25.8754 21.008C26.0754 21.376 26.3434 21.66 26.6794 21.86C27.0154 22.052 27.3874 22.148 27.7954 22.148C28.2034 22.148 28.5754 22.052 28.9114 21.86C29.2554 21.66 29.5274 21.376 29.7274 21.008C29.9274 20.632 30.0274 20.196 30.0274 19.7ZM35.6887 16.316C36.2567 16.316 36.7527 16.44 37.1767 16.688C37.6087 16.936 37.9287 17.248 38.1367 17.624V16.424H39.2407V23.144C39.2407 23.744 39.1127 24.276 38.8567 24.74C38.6007 25.212 38.2327 25.58 37.7527 25.844C37.2807 26.108 36.7287 26.24 36.0967 26.24C35.2327 26.24 34.5127 26.036 33.9367 25.628C33.3607 25.22 33.0207 24.664 32.9167 23.96H33.9967C34.1167 24.36 34.3647 24.68 34.7407 24.92C35.1167 25.168 35.5687 25.292 36.0967 25.292C36.6967 25.292 37.1847 25.104 37.5607 24.728C37.9447 24.352 38.1367 23.824 38.1367 23.144V21.764C37.9207 22.148 37.6007 22.468 37.1767 22.724C36.7527 22.98 36.2567 23.108 35.6887 23.108C35.1047 23.108 34.5727 22.964 34.0927 22.676C33.6207 22.388 33.2487 21.984 32.9767 21.464C32.7047 20.944 32.5687 20.352 32.5687 19.688C32.5687 19.016 32.7047 18.428 32.9767 17.924C33.2487 17.412 33.6207 17.016 34.0927 16.736C34.5727 16.456 35.1047 16.316 35.6887 16.316ZM38.1367 19.7C38.1367 19.204 38.0367 18.772 37.8367 18.404C37.6367 18.036 37.3647 17.756 37.0207 17.564C36.6847 17.364 36.3127 17.264 35.9047 17.264C35.4967 17.264 35.1247 17.36 34.7887 17.552C34.4527 17.744 34.1847 18.024 33.9847 18.392C33.7847 18.76 33.6847 19.192 33.6847 19.688C33.6847 20.192 33.7847 20.632 33.9847 21.008C34.1847 21.376 34.4527 21.66 34.7887 21.86C35.1247 22.052 35.4967 22.148 35.9047 22.148C36.3127 22.148 36.6847 22.052 37.0207 21.86C37.3647 21.66 37.6367 21.376 37.8367 21.008C38.0367 20.632 38.1367 20.196 38.1367 19.7ZM44.0813 16.508C44.1373 15.772 44.4213 15.196 44.9333 14.78C45.4453 14.364 46.1093 14.156 46.9253 14.156C47.4693 14.156 47.9373 14.256 48.3293 14.456C48.7293 14.648 49.0293 14.912 49.2293 15.248C49.4373 15.584 49.5413 15.964 49.5413 16.388C49.5413 16.884 49.3973 17.312 49.1093 17.672C48.8293 18.032 48.4613 18.264 48.0053 18.368V18.428C48.5253 18.556 48.9373 18.808 49.2413 19.184C49.5453 19.56 49.6973 20.052 49.6973 20.66C49.6973 21.116 49.5933 21.528 49.3853 21.896C49.1773 22.256 48.8653 22.54 48.4493 22.748C48.0333 22.956 47.5333 23.06 46.9493 23.06C46.1013 23.06 45.4053 22.84 44.8613 22.4C44.3173 21.952 44.0133 21.32 43.9493 20.504H45.0053C45.0613 20.984 45.2573 21.376 45.5933 21.68C45.9293 21.984 46.3773 22.136 46.9373 22.136C47.4973 22.136 47.9213 21.992 48.2093 21.704C48.5053 21.408 48.6533 21.028 48.6533 20.564C48.6533 19.964 48.4533 19.532 48.0533 19.268C47.6533 19.004 47.0493 18.872 46.2413 18.872H45.9653V17.96H46.2533C46.9893 17.952 47.5453 17.832 47.9213 17.6C48.2973 17.36 48.4853 16.992 48.4853 16.496C48.4853 16.072 48.3453 15.732 48.0653 15.476C47.7933 15.22 47.4013 15.092 46.8893 15.092C46.3933 15.092 45.9933 15.22 45.6893 15.476C45.3853 15.732 45.2053 16.076 45.1493 16.508H44.0813Z" fill="#50F635"/>
<defs>
<clipPath id="clip0_1_45870">
<rect width="14.8578" height="14.8578" fill="white" transform="translate(0.714844 11.5703)"/>
</clipPath>
</defs>
</svg>
