<svg width="55" height="38" viewBox="0 0 55 38" fill="none" xmlns="http://www.w3.org/2000/svg">
<g clip-path="url(#clip0_1_45863)">
<path d="M15.4645 21.7317L11.0188 26.1774C10.8581 26.338 10.6403 26.4281 10.4131 26.4281C10.186 26.4281 9.96812 26.338 9.8074 26.1774L0.984546 17.3546C0.940214 17.3122 0.905917 17.2604 0.884166 17.2031C0.862415 17.1458 0.853759 17.0843 0.858832 17.0232L1.53312 12.646C1.53862 12.5417 1.58253 12.4431 1.65638 12.3693C1.73024 12.2954 1.82881 12.2515 1.93312 12.246L6.31026 11.5717C6.37138 11.5666 6.43286 11.5753 6.49021 11.5971C6.54755 11.6188 6.59931 11.6531 6.64169 11.6974L15.4645 20.5203C15.6251 20.681 15.7152 20.8989 15.7152 21.126C15.7152 21.3532 15.6251 21.571 15.4645 21.7317Z" stroke="#F82929" stroke-width="1.71429" stroke-linecap="round" stroke-linejoin="round"/>
<path d="M4.98549 16.2679C5.30108 16.2679 5.55692 16.012 5.55692 15.6964C5.55692 15.3808 5.30108 15.125 4.98549 15.125C4.6699 15.125 4.41406 15.3808 4.41406 15.6964C4.41406 16.012 4.6699 16.2679 4.98549 16.2679Z" stroke="#F82929" stroke-width="1.71429" stroke-linecap="round" stroke-linejoin="round"/>
</g>
<path d="M21.9708 17.324V21.2C21.9708 21.52 22.0388 21.748 22.1748 21.884C22.3108 22.012 22.5468 22.076 22.8828 22.076H23.6868V23H22.7028C22.0948 23 21.6388 22.86 21.3348 22.58C21.0308 22.3 20.8788 21.84 20.8788 21.2V17.324H20.0268V16.424H20.8788V14.768H21.9708V16.424H23.6868V17.324H21.9708ZM24.6019 19.688C24.6019 19.016 24.7379 18.428 25.0099 17.924C25.2819 17.412 25.6539 17.016 26.1259 16.736C26.6059 16.456 27.1379 16.316 27.7219 16.316C28.2979 16.316 28.7979 16.44 29.2219 16.688C29.6459 16.936 29.9619 17.248 30.1699 17.624V16.424H31.2739V23H30.1699V21.776C29.9539 22.16 29.6299 22.48 29.1979 22.736C28.7739 22.984 28.2779 23.108 27.7099 23.108C27.1259 23.108 26.5979 22.964 26.1259 22.676C25.6539 22.388 25.2819 21.984 25.0099 21.464C24.7379 20.944 24.6019 20.352 24.6019 19.688ZM30.1699 19.7C30.1699 19.204 30.0699 18.772 29.8699 18.404C29.6699 18.036 29.3979 17.756 29.0539 17.564C28.7179 17.364 28.3459 17.264 27.9379 17.264C27.5299 17.264 27.1579 17.36 26.8219 17.552C26.4859 17.744 26.2179 18.024 26.0179 18.392C25.8179 18.76 25.7179 19.192 25.7179 19.688C25.7179 20.192 25.8179 20.632 26.0179 21.008C26.2179 21.376 26.4859 21.66 26.8219 21.86C27.1579 22.052 27.5299 22.148 27.9379 22.148C28.3459 22.148 28.7179 22.052 29.0539 21.86C29.3979 21.66 29.6699 21.376 29.8699 21.008C30.0699 20.632 30.1699 20.196 30.1699 19.7ZM35.8313 16.316C36.3993 16.316 36.8953 16.44 37.3193 16.688C37.7513 16.936 38.0713 17.248 38.2793 17.624V16.424H39.3833V23.144C39.3833 23.744 39.2553 24.276 38.9993 24.74C38.7433 25.212 38.3753 25.58 37.8953 25.844C37.4233 26.108 36.8713 26.24 36.2393 26.24C35.3753 26.24 34.6553 26.036 34.0793 25.628C33.5033 25.22 33.1633 24.664 33.0593 23.96H34.1393C34.2593 24.36 34.5073 24.68 34.8833 24.92C35.2593 25.168 35.7113 25.292 36.2393 25.292C36.8393 25.292 37.3273 25.104 37.7033 24.728C38.0873 24.352 38.2793 23.824 38.2793 23.144V21.764C38.0633 22.148 37.7433 22.468 37.3193 22.724C36.8953 22.98 36.3993 23.108 35.8313 23.108C35.2473 23.108 34.7153 22.964 34.2353 22.676C33.7633 22.388 33.3913 21.984 33.1193 21.464C32.8473 20.944 32.7113 20.352 32.7113 19.688C32.7113 19.016 32.8473 18.428 33.1193 17.924C33.3913 17.412 33.7633 17.016 34.2353 16.736C34.7153 16.456 35.2473 16.316 35.8313 16.316ZM38.2793 19.7C38.2793 19.204 38.1793 18.772 37.9793 18.404C37.7793 18.036 37.5073 17.756 37.1633 17.564C36.8273 17.364 36.4553 17.264 36.0473 17.264C35.6393 17.264 35.2673 17.36 34.9313 17.552C34.5953 17.744 34.3273 18.024 34.1273 18.392C33.9273 18.76 33.8273 19.192 33.8273 19.688C33.8273 20.192 33.9273 20.632 34.1273 21.008C34.3273 21.376 34.5953 21.66 34.9313 21.86C35.2673 22.052 35.6393 22.148 36.0473 22.148C36.4553 22.148 36.8273 22.052 37.1633 21.86C37.5073 21.66 37.7793 21.376 37.9793 21.008C38.1793 20.632 38.2793 20.196 38.2793 19.7ZM44.1159 22.124C45.1319 21.308 45.9279 20.64 46.5039 20.12C47.0799 19.592 47.5639 19.044 47.9559 18.476C48.3559 17.9 48.5559 17.336 48.5559 16.784C48.5559 16.264 48.4279 15.856 48.1719 15.56C47.9239 15.256 47.5199 15.104 46.9599 15.104C46.4159 15.104 45.9919 15.276 45.6879 15.62C45.3919 15.956 45.2319 16.408 45.2079 16.976H44.1519C44.1839 16.08 44.4559 15.388 44.9679 14.9C45.4799 14.412 46.1399 14.168 46.9479 14.168C47.7719 14.168 48.4239 14.396 48.9039 14.852C49.3919 15.308 49.6359 15.936 49.6359 16.736C49.6359 17.4 49.4359 18.048 49.0359 18.68C48.6439 19.304 48.1959 19.856 47.6919 20.336C47.1879 20.808 46.5439 21.36 45.7599 21.992H49.8879V22.904H44.1159V22.124Z" fill="#F82929"/>
<defs>
<clipPath id="clip0_1_45863">
<rect width="14.8578" height="14.8578" fill="white" transform="translate(0.857422 11.5703)"/>
</clipPath>
</defs>
</svg>
