<svg width="24" height="24" viewBox="0 0 24 24" fill="none" xmlns="http://www.w3.org/2000/svg">
<g opacity="0.75">
<path d="M14.2302 9.05357C14.2298 9.11892 14.2274 9.18424 14.2229 9.24944C14.2207 9.28166 14.2173 9.3138 14.2138 9.34593C14.2023 9.45489 14.2279 9.25612 14.211 9.36388C14.1898 9.499 14.1554 9.63177 14.113 9.76169C14.1034 9.79133 14.0926 9.82061 14.0819 9.84986C14.0755 9.86723 14.0354 9.96534 14.0769 9.86711C14.0529 9.92404 14.0257 9.97961 13.9976 10.0346C13.9371 10.1531 13.8654 10.2656 13.7874 10.3734C13.7262 10.4579 13.842 10.3058 13.7769 10.3873C13.7578 10.4112 13.7379 10.4344 13.718 10.4576C13.6783 10.5039 13.6361 10.5482 13.5931 10.5916C13.5502 10.635 13.505 10.6762 13.4591 10.7165C13.4361 10.7367 13.4125 10.756 13.3888 10.7754C13.3535 10.8034 13.357 10.8009 13.3995 10.7676C13.3832 10.7799 13.3667 10.792 13.3501 10.8038C13.2506 10.8759 13.1448 10.939 13.0362 10.9961C12.9815 11.0249 12.9253 11.0507 12.8687 11.0754C12.9662 11.0327 12.8689 11.0737 12.8514 11.0804C12.8125 11.0952 12.773 11.1083 12.7335 11.1212C12.6134 11.1604 12.4899 11.1884 12.3654 11.2095C12.2579 11.2277 12.4563 11.1994 12.3475 11.2123C12.3154 11.2161 12.2832 11.2187 12.251 11.2213C12.1749 11.2275 12.0985 11.2289 12.0223 11.2284C11.9571 11.228 11.892 11.224 11.827 11.2187C11.7949 11.2159 11.7628 11.2125 11.7309 11.2085C11.84 11.2215 11.7327 11.2074 11.7134 11.2041C11.5788 11.1813 11.4467 11.1453 11.3175 11.1014C11.288 11.0914 11.2589 11.0804 11.2298 11.0693C11.1308 11.0316 11.3101 11.1053 11.2132 11.063C11.1567 11.0382 11.1015 11.0105 11.0468 10.9817C10.9291 10.9198 10.8175 10.8468 10.7108 10.7676C10.7949 10.8301 10.7122 10.7677 10.6978 10.756C10.6742 10.7365 10.6511 10.7166 10.6282 10.6963C10.5823 10.656 10.5386 10.6133 10.4957 10.5699C10.4527 10.5264 10.4121 10.4807 10.3723 10.4344C10.3524 10.4112 10.3333 10.3873 10.3143 10.3634C10.3825 10.4488 10.2992 10.3405 10.2872 10.3236C10.2163 10.2231 10.1545 10.1166 10.0986 10.0071C10.0846 9.97965 10.0715 9.95165 10.0584 9.92366C10.0505 9.90667 10.0106 9.80938 10.0508 9.9078C10.0233 9.84044 9.99988 9.77151 9.97817 9.70208C9.94042 9.58131 9.91389 9.45726 9.89429 9.33231C9.91135 9.44108 9.89506 9.3333 9.893 9.31389C9.88978 9.28167 9.88716 9.24939 9.88515 9.21707C9.87992 9.1408 9.87946 9.06428 9.88089 8.98787C9.8821 8.92286 9.88693 8.85798 9.893 8.79327C9.89481 8.77401 9.91004 8.66563 9.89429 8.77485C9.89884 8.74328 9.90456 8.71192 9.91028 8.68056C9.93472 8.54645 9.97227 8.41499 10.0176 8.28655C10.028 8.25723 10.0394 8.22829 10.0509 8.19937C10.0119 8.29806 10.0507 8.20075 10.0585 8.1835C10.0839 8.12727 10.1123 8.07245 10.1417 8.01822C10.1709 7.96417 10.203 7.91174 10.236 7.85994C10.2525 7.83409 10.2699 7.80885 10.2873 7.78363C10.2989 7.76673 10.3816 7.65744 10.3143 7.74379C10.3894 7.64737 10.473 7.55774 10.5608 7.47292C10.6048 7.43048 10.6509 7.3904 10.6978 7.35119C10.7119 7.33937 10.7944 7.276 10.7108 7.33956C10.7433 7.31486 10.7768 7.29149 10.8104 7.26833C10.9117 7.19856 11.0191 7.13795 11.1292 7.08334C11.157 7.06979 11.185 7.05673 11.2133 7.04418C11.3096 7.00068 11.1313 7.07678 11.2298 7.0379C11.2976 7.01113 11.3669 6.98854 11.4367 6.96765C11.4971 6.94958 11.5584 6.93487 11.6199 6.92127C11.6509 6.91443 11.6822 6.90873 11.7134 6.90304C11.7324 6.89957 11.8401 6.88431 11.7309 6.89865C11.8709 6.88026 12.0125 6.87594 12.1535 6.88035C12.2184 6.88237 12.283 6.88801 12.3475 6.89486C12.4565 6.90644 12.2577 6.8808 12.3654 6.89769C12.3969 6.90262 12.4281 6.90871 12.4594 6.9148C12.593 6.94087 12.7238 6.97996 12.8514 7.02681C12.8688 7.03319 12.9669 7.07331 12.8687 7.03176C12.8972 7.0438 12.9252 7.05688 12.9533 7.06996C13.0091 7.096 13.0636 7.12506 13.1174 7.15504C13.1711 7.18492 13.2231 7.21764 13.2744 7.25125C13.3001 7.26803 13.3251 7.2857 13.3501 7.30337C13.3651 7.31397 13.4479 7.37737 13.3649 7.31275C13.4613 7.38789 13.551 7.47142 13.6358 7.55929C13.6783 7.60323 13.7183 7.6494 13.7576 7.69623C13.7694 7.71034 13.8327 7.79284 13.7692 7.70924C13.7877 7.73362 13.8054 7.75862 13.823 7.78363C13.8939 7.88406 13.9558 7.99061 14.0117 8.10001C14.0257 8.12753 14.0388 8.15551 14.0518 8.18352C14.0597 8.20051 14.0997 8.2978 14.0594 8.19939C14.083 8.25707 14.1034 8.31601 14.1227 8.37524C14.1619 8.49536 14.1899 8.61885 14.211 8.74333C14.2292 8.85086 14.2009 8.65246 14.2138 8.76128C14.2176 8.79337 14.2203 8.82557 14.2229 8.85775C14.2282 8.92286 14.2298 8.98825 14.2302 9.05357C14.2316 9.27714 14.4157 9.46373 14.6404 9.46373C14.8629 9.46373 15.0519 9.27716 15.0505 9.05357C15.0433 7.90314 14.3665 6.81257 13.3111 6.33583C12.2077 5.83743 10.9244 6.0426 10.0255 6.85119C9.16086 7.62897 8.84394 8.91323 9.21624 10.0093C9.39667 10.5404 9.72627 11.0239 10.1653 11.3745C10.641 11.7543 11.1905 11.9718 11.7948 12.036C12.6285 12.1246 13.4682 11.8107 14.0848 11.2559C14.7018 10.7009 15.0453 9.87812 15.0505 9.05357C15.0519 8.82998 14.8629 8.64341 14.6403 8.64341C14.4157 8.64341 14.2316 8.83002 14.2302 9.05357Z" fill="white"/>
<path d="M15.0153 11.9427C15.0727 11.9794 15.1291 12.0175 15.1845 12.0571C15.1954 12.0649 15.2854 12.1341 15.2098 12.075C15.2366 12.096 15.2626 12.1177 15.2887 12.1395C15.4016 12.2337 15.5063 12.3374 15.6051 12.4462C15.6508 12.4965 15.694 12.5489 15.7363 12.6019C15.6766 12.5271 15.7462 12.6165 15.7541 12.6274C15.7741 12.6549 15.7936 12.6828 15.8126 12.711C15.8961 12.8333 15.969 12.9625 16.0346 13.0951C16.0497 13.126 16.0642 13.1571 16.0783 13.1884C16.1259 13.293 16.0475 13.1105 16.0906 13.2173C16.1165 13.2814 16.1392 13.3469 16.1608 13.4126C16.2083 13.5569 16.2429 13.7052 16.2692 13.8548C16.2716 13.8687 16.2881 13.986 16.2752 13.8864C16.2798 13.9219 16.2832 13.9575 16.2866 13.9931C16.2935 14.0651 16.2968 14.1374 16.2988 14.2097C16.2999 14.247 16.2996 14.2844 16.2996 14.3217V16.4128C16.2996 16.4393 16.2988 16.4524 16.2975 16.4788C16.2922 16.588 16.3146 16.3915 16.2955 16.4977C16.2899 16.5289 16.2813 16.5595 16.2728 16.59C16.2677 16.6081 16.2297 16.7068 16.2709 16.6095C16.2468 16.6665 16.2147 16.7199 16.1806 16.7713C16.1232 16.8577 16.2365 16.7066 16.1691 16.7852C16.1424 16.8162 16.1125 16.8444 16.0823 16.8719C16.0058 16.9417 16.153 16.8235 16.0684 16.8835C16.0433 16.9013 16.0165 16.9168 15.9898 16.9323C15.963 16.9478 15.9347 16.9608 15.9066 16.9738C16.0014 16.9301 15.9061 16.9696 15.8871 16.9756C15.8569 16.9852 15.8258 16.9918 15.7949 16.9984C15.6893 17.0209 15.8849 16.9915 15.776 17.0004C15.7534 17.0022 15.7304 17.0025 15.7078 17.0025H8.39807C8.3691 17.0025 8.36111 17.0018 8.33226 17.0004C8.22313 16.995 8.41959 17.0175 8.31339 16.9984C8.28217 16.9928 8.25159 16.9842 8.22109 16.9756C8.20103 16.9697 8.18116 16.9631 8.16152 16.9558C8.21104 16.9781 8.215 16.9798 8.17342 16.9608C8.11727 16.9349 8.065 16.9013 8.0147 16.8656C8.0983 16.9249 8.01812 16.8648 8.00329 16.8512C7.9806 16.8305 7.95986 16.8078 7.93919 16.7851C7.86939 16.7086 7.98766 16.8559 7.92766 16.7713C7.9098 16.7461 7.8943 16.7194 7.87886 16.6927C7.8633 16.6658 7.85031 16.6376 7.83735 16.6094C7.88266 16.7078 7.83306 16.5814 7.82692 16.5596C7.81832 16.5289 7.81267 16.4975 7.80705 16.4662C7.82608 16.5721 7.81019 16.4673 7.80916 16.4461C7.8085 16.4324 7.80862 16.4186 7.80862 16.4048V14.3942C7.80862 14.2842 7.80916 14.1745 7.81598 14.0645C7.8182 14.0286 7.82165 13.9927 7.82509 13.9569C7.82643 13.943 7.84218 13.8245 7.82807 13.9241C7.83798 13.854 7.85144 13.7844 7.86602 13.7152C7.89721 13.5671 7.94144 13.422 7.99347 13.2801C8.00535 13.2476 8.01834 13.2156 8.03127 13.1835C7.99495 13.2734 8.03938 13.1676 8.04503 13.1552C8.07351 13.0928 8.10501 13.0317 8.13747 12.9712C8.20745 12.8409 8.28855 12.7168 8.37592 12.5975C8.44309 12.5057 8.32412 12.6616 8.39507 12.5729C8.4163 12.5463 8.43838 12.5205 8.46046 12.4946C8.50459 12.4429 8.55116 12.3933 8.59846 12.3446C8.64578 12.2958 8.6954 12.2493 8.74572 12.2036C8.77101 12.1809 8.79666 12.1586 8.82266 12.1368C8.83565 12.1257 8.94991 12.0359 8.87261 12.0949C8.93582 12.0466 9.00154 12.0018 9.06817 11.9584C9.25516 11.8367 9.33243 11.5972 9.21531 11.3973C9.10647 11.2114 8.8417 11.128 8.65415 11.2501C7.6281 11.9182 6.98828 13.0583 6.98828 14.288V16.1019C6.98828 16.4452 6.99665 16.7603 7.15584 17.0795C7.38623 17.5414 7.90335 17.8229 8.40986 17.8229H15.7054C16.3012 17.8229 16.8202 17.4467 17.0327 16.8968C17.1395 16.6205 17.12 16.3212 17.12 16.0309V14.2827C17.12 13.6476 16.9475 13.0193 16.6299 12.4701C16.3391 11.9673 15.9175 11.5459 15.4294 11.2344C15.2407 11.1141 14.9778 11.1944 14.8682 11.3816C14.7519 11.5801 14.8272 11.8227 15.0153 11.9427ZM20.6769 11.3311C20.6763 11.3959 20.6726 11.4607 20.6658 11.5252C20.6773 11.4163 20.6648 11.522 20.6612 11.542C20.6555 11.573 20.6481 11.6037 20.6407 11.6343C20.626 11.6949 20.6063 11.7542 20.585 11.8128C20.5489 11.9118 20.6219 11.7331 20.5788 11.8288C20.5619 11.8662 20.5427 11.9024 20.5232 11.9384C20.4941 11.9921 20.4606 12.0434 20.4258 12.0937C20.3668 12.1791 20.4812 12.0268 20.4162 12.1076C20.3971 12.1314 20.3767 12.154 20.3564 12.1766C20.3158 12.222 20.2715 12.2639 20.2263 12.3045C20.2036 12.3248 20.1799 12.3439 20.1562 12.363C20.2413 12.2945 20.1331 12.3761 20.1155 12.3878C20.0645 12.4218 20.0108 12.4515 19.9564 12.4797C19.9291 12.4938 19.901 12.5065 19.873 12.5191C19.9699 12.4755 19.8741 12.5167 19.8559 12.5233C19.7971 12.5447 19.7367 12.5611 19.676 12.5758C19.6453 12.5832 19.6141 12.5889 19.5831 12.5946C19.5365 12.6019 19.5413 12.6015 19.5974 12.5936C19.5761 12.596 19.5548 12.598 19.5334 12.5997C19.4684 12.6053 19.4031 12.6052 19.338 12.6034C19.3056 12.6024 19.2734 12.5997 19.2412 12.5969C19.1324 12.5876 19.3306 12.612 19.2236 12.5946C19.1615 12.5845 19.1003 12.5691 19.0397 12.552C19.0097 12.5436 18.9802 12.5335 18.9508 12.5233C18.9313 12.5164 18.912 12.5092 18.8927 12.5016C18.943 12.5234 18.9473 12.5251 18.9056 12.5065C18.8496 12.4813 18.7958 12.4515 18.743 12.4203C18.7167 12.4048 18.6912 12.3878 18.6658 12.3709C18.6503 12.3607 18.5673 12.2985 18.6505 12.363C18.5462 12.2821 18.454 12.1866 18.3714 12.0839C18.4372 12.1657 18.3743 12.0842 18.3635 12.0686C18.3461 12.0435 18.3301 12.0175 18.3141 11.9914C18.2819 11.9392 18.2541 11.8843 18.2279 11.8288C18.1831 11.7339 18.2596 11.9111 18.2217 11.8128C18.2105 11.7838 18.2009 11.7542 18.1914 11.7246C18.1689 11.6548 18.153 11.583 18.1398 11.5109C18.1203 11.4042 18.1489 11.6018 18.1375 11.4933C18.1341 11.4611 18.1326 11.4288 18.131 11.3965C18.1279 11.3314 18.1304 11.2661 18.1347 11.2011C18.1361 11.1815 18.1504 11.0734 18.1347 11.1828C18.1392 11.1514 18.1455 11.1203 18.1518 11.0893C18.1662 11.0177 18.1874 10.9477 18.2111 10.8786C18.2172 10.8608 18.2573 10.7634 18.2153 10.8616C18.2274 10.8333 18.2411 10.8057 18.2547 10.7781C18.2819 10.7232 18.3136 10.6706 18.3466 10.6191C18.363 10.5934 18.3809 10.5686 18.3987 10.5439C18.3377 10.6286 18.3976 10.5462 18.41 10.5313C18.4555 10.4768 18.5058 10.4265 18.5578 10.3781C18.5801 10.3574 18.6034 10.3379 18.6268 10.3184C18.662 10.2902 18.6584 10.2929 18.616 10.3265C18.6324 10.3145 18.649 10.3028 18.6658 10.2914C18.7246 10.2507 18.7869 10.2155 18.8503 10.1826C18.8776 10.1685 18.9057 10.1558 18.9337 10.1432C18.8328 10.1886 18.9597 10.1359 18.9802 10.1289C19.0595 10.1017 19.1413 10.0827 19.2236 10.0677C19.3302 10.0482 19.1327 10.0768 19.2412 10.0654C19.2842 10.0609 19.3274 10.0592 19.3706 10.058C19.4463 10.0558 19.5221 10.0608 19.5974 10.0688C19.4886 10.0573 19.5943 10.0697 19.6143 10.0734C19.6556 10.0809 19.6963 10.0912 19.7369 10.1018C19.7771 10.1123 19.8166 10.1255 19.8559 10.1389C19.8754 10.1458 19.8947 10.1531 19.9139 10.1607C19.8636 10.1389 19.8593 10.1372 19.9011 10.1558C19.9663 10.1852 20.0288 10.2205 20.0897 10.258C20.1157 10.274 20.1409 10.2914 20.1659 10.3088C20.2023 10.3355 20.1991 10.3323 20.1562 10.2993C20.1721 10.3119 20.1878 10.3248 20.2033 10.3379C20.2578 10.3834 20.3081 10.4337 20.3564 10.4857C20.3841 10.5154 20.4098 10.5468 20.4352 10.5784C20.3668 10.4933 20.4483 10.6014 20.4601 10.6191C20.4997 10.6787 20.5339 10.7417 20.5656 10.8057C20.5741 10.8229 20.614 10.9191 20.5739 10.8206C20.5895 10.859 20.6026 10.8983 20.6153 10.9377C20.6378 11.0075 20.6537 11.0793 20.6669 11.1515C20.6742 11.1981 20.6738 11.1933 20.6658 11.1371C20.6683 11.1584 20.6703 11.1798 20.672 11.2012C20.6757 11.2443 20.6765 11.2878 20.6769 11.3311C20.679 11.5547 20.8619 11.7413 21.087 11.7413C21.309 11.7413 21.4993 11.5547 21.4972 11.3311C21.4915 10.7337 21.2373 10.1508 20.7833 9.75781C20.2927 9.33309 19.6724 9.18021 19.0369 9.27152C18.4525 9.3555 17.9349 9.74147 17.6218 10.2308C17.2971 10.7381 17.2262 11.4024 17.41 11.9723C17.5632 12.4473 17.8845 12.8448 18.303 13.1126C18.7415 13.3932 19.2631 13.4635 19.7698 13.3907C20.7649 13.2477 21.4879 12.3099 21.4972 11.3311C21.4993 11.1075 21.309 10.921 21.087 10.921C20.8619 10.921 20.679 11.1076 20.6769 11.3311Z" fill="white"/>
<path d="M21.2603 13.3382C21.2888 13.3565 21.3169 13.3752 21.3448 13.3944C21.3563 13.4024 21.4454 13.471 21.3697 13.4113C21.4226 13.4531 21.4724 13.4986 21.521 13.5453C21.5696 13.5919 21.6148 13.6421 21.6586 13.6932C21.6678 13.704 21.7358 13.7931 21.678 13.7161C21.705 13.7521 21.73 13.7897 21.7547 13.8274C21.7918 13.8842 21.8247 13.9436 21.856 14.0037C21.8718 14.0339 21.886 14.0649 21.9002 14.0958C21.8595 14.0073 21.9057 14.1108 21.9109 14.1245C21.9355 14.189 21.9553 14.2552 21.9733 14.3218C21.9824 14.3555 21.9898 14.3895 21.9971 14.4236C22.001 14.4416 22.0241 14.5902 22.0109 14.4881C22.0494 14.7855 22.0259 15.0986 22.0259 15.3974V16.1262C22.0259 16.1478 22.0249 16.1693 22.0228 16.1908C22.031 16.1344 22.0304 16.1292 22.0213 16.1752C22.0168 16.1955 21.9793 16.2901 22.0214 16.1936C22.0092 16.2216 21.9931 16.2477 21.9771 16.2737C21.9239 16.3598 22.0339 16.2111 21.966 16.2857C21.9521 16.3008 21.8747 16.3635 21.9576 16.301C21.9333 16.3193 21.9065 16.3342 21.88 16.3489C21.7908 16.3984 21.9618 16.3221 21.8641 16.3541C21.8433 16.3609 21.742 16.3771 21.8497 16.3639C21.8301 16.3663 21.804 16.367 21.7843 16.367H18.1363C17.9127 16.367 17.7261 16.5536 17.7261 16.7772C17.7261 17.0008 17.9127 17.1874 18.1363 17.1874H21.5764C21.8655 17.1874 22.1518 17.1752 22.3959 16.991C22.6722 16.7825 22.8463 16.4764 22.8463 16.1242V14.8076C22.8463 14.2915 22.717 13.7876 22.4256 13.3571C22.227 13.0638 21.9722 12.8212 21.6744 12.63C21.4861 12.5091 21.2226 12.5904 21.1133 12.7771C20.9966 12.9761 21.0726 13.2177 21.2603 13.3382ZM5.97882 11.3311C5.97823 11.3959 5.97454 11.4607 5.96776 11.5252C5.97922 11.4163 5.96678 11.522 5.96312 11.542C5.95747 11.573 5.95004 11.6037 5.94266 11.6343C5.92801 11.6949 5.90828 11.7542 5.88695 11.8128C5.85088 11.9118 5.92382 11.7331 5.88069 11.8288C5.86386 11.8662 5.84467 11.9024 5.82517 11.9384C5.79603 11.9921 5.76257 12.0434 5.72778 12.0937C5.6687 12.1791 5.78314 12.0268 5.71813 12.1076C5.69905 12.1314 5.67871 12.154 5.65839 12.1766C5.61774 12.222 5.57349 12.2639 5.52824 12.3045C5.50557 12.3248 5.48185 12.3439 5.45814 12.363C5.54326 12.2945 5.43507 12.3761 5.4174 12.3878C5.3664 12.4218 5.31273 12.4515 5.25838 12.4797C5.23105 12.4938 5.20297 12.5065 5.17492 12.5191C5.27181 12.4755 5.17602 12.5167 5.15783 12.5233C5.0991 12.5447 5.03867 12.5611 4.97795 12.5758C4.94722 12.5832 4.91612 12.5889 4.88504 12.5946C4.83845 12.6019 4.84323 12.6015 4.89939 12.5936C4.87808 12.596 4.85673 12.598 4.83535 12.5997C4.77039 12.6053 4.70507 12.6052 4.63998 12.6034C4.60764 12.6024 4.57539 12.5997 4.54316 12.5969C4.43441 12.5876 4.63253 12.612 4.52558 12.5946C4.46342 12.5845 4.40225 12.5691 4.34169 12.552C4.31171 12.5436 4.28223 12.5335 4.25279 12.5233C4.23331 12.5165 4.21395 12.5092 4.19474 12.5016C4.24503 12.5234 4.24935 12.5251 4.2076 12.5065C4.15161 12.4813 4.09782 12.4515 4.04499 12.4203C4.01867 12.4048 3.99322 12.3878 3.96782 12.3709C3.95235 12.3607 3.86924 12.2985 3.95249 12.363C3.84819 12.2821 3.75601 12.1866 3.67342 12.0839C3.73918 12.1657 3.6763 12.0842 3.66549 12.0686C3.6481 12.0435 3.6321 12.0175 3.61611 11.9914C3.58396 11.9392 3.55616 11.8843 3.52996 11.8288C3.48507 11.7339 3.5616 11.9111 3.5237 11.8128C3.51252 11.7838 3.50298 11.7542 3.49344 11.7246C3.47092 11.6548 3.455 11.583 3.44183 11.5109C3.42235 11.4042 3.45095 11.6018 3.43951 11.4933C3.43614 11.4611 3.43459 11.4288 3.43307 11.3965C3.42995 11.3314 3.43243 11.2661 3.43677 11.2011C3.43808 11.1815 3.45242 11.0734 3.43672 11.1828C3.44122 11.1514 3.4475 11.1203 3.45381 11.0893C3.46827 11.0177 3.48943 10.9477 3.5131 10.8786C3.51924 10.8608 3.55935 10.7634 3.5173 10.8616C3.52942 10.8333 3.5431 10.8057 3.55674 10.7781C3.58396 10.7232 3.6156 10.6706 3.64857 10.6191C3.66503 10.5934 3.68286 10.5686 3.70067 10.5439C3.63971 10.6286 3.69962 10.5462 3.71204 10.5313C3.75753 10.4768 3.80785 10.4265 3.85979 10.3781C3.88208 10.3574 3.90545 10.3379 3.92882 10.3184C3.96402 10.2902 3.96041 10.2929 3.91801 10.3265C3.9344 10.3145 3.95102 10.3028 3.96784 10.2914C4.0266 10.2507 4.08889 10.2155 4.15227 10.1826C4.1796 10.1685 4.20767 10.1558 4.23573 10.1432C4.13481 10.1886 4.26172 10.1359 4.28218 10.1289C4.36142 10.1017 4.44327 10.0827 4.5256 10.0677C4.6322 10.0482 4.43464 10.0768 4.54318 10.0654C4.58617 10.0609 4.62941 10.0592 4.67258 10.058C4.74833 10.0558 4.8241 10.0608 4.89941 10.0688C4.79054 10.0573 4.89627 10.0697 4.91624 10.0734C4.95753 10.0809 4.99827 10.0912 5.03886 10.1018C5.07908 10.1123 5.11857 10.1255 5.15788 10.1389C5.17736 10.1458 5.19672 10.1531 5.21593 10.1607C5.16564 10.1389 5.16132 10.1372 5.20306 10.1558C5.26836 10.1852 5.3308 10.2205 5.39171 10.258C5.41773 10.274 5.44285 10.2914 5.46796 10.3088C5.50433 10.3355 5.50107 10.3323 5.45818 10.2993C5.47411 10.3119 5.48981 10.3248 5.50527 10.3379C5.55978 10.3834 5.6101 10.4337 5.65843 10.4857C5.68609 10.5154 5.71182 10.5468 5.73728 10.5784C5.66879 10.4933 5.75038 10.6014 5.76214 10.6191C5.80178 10.6787 5.8359 10.7417 5.86761 10.8057C5.87614 10.8229 5.91594 10.9191 5.87589 10.8206C5.89149 10.859 5.90457 10.8983 5.91728 10.9377C5.9398 11.0075 5.95571 11.0793 5.96889 11.1515C5.9762 11.1981 5.97582 11.1933 5.96783 11.1371C5.97027 11.1584 5.97231 11.1798 5.97395 11.2012C5.97758 11.2443 5.9784 11.2878 5.97882 11.3311C5.98096 11.5547 6.16379 11.7413 6.38898 11.7413C6.61096 11.7413 6.80127 11.5547 6.79914 11.3311C6.79344 10.7337 6.53919 10.1508 6.08528 9.75781C5.59468 9.33309 4.97436 9.18021 4.33888 9.27152C3.75444 9.3555 3.23689 9.74147 2.92379 10.2308C2.59911 10.7381 2.52814 11.4024 2.71199 11.9723C2.86522 12.4473 3.18643 12.8448 3.60496 13.1126C4.04347 13.3932 4.5651 13.4635 5.07174 13.3907C6.06683 13.2477 6.78983 12.3099 6.79916 11.3311C6.80129 11.1075 6.61098 10.921 6.389 10.921C6.16377 10.921 5.98096 11.1076 5.97882 11.3311ZM5.9732 16.367H2.34003C2.30579 16.367 2.20536 16.3518 2.30596 16.3692C2.27518 16.3639 2.24542 16.3541 2.21584 16.3444C2.31104 16.3756 2.22458 16.3462 2.20271 16.3341C2.18349 16.3234 2.10838 16.262 2.1872 16.3274C2.16899 16.3123 2.08471 16.2129 2.14949 16.2987C2.13111 16.2743 2.11628 16.2476 2.10153 16.221C2.05206 16.1318 2.12837 16.3028 2.09635 16.2052C2.08953 16.1843 2.07334 16.083 2.0866 16.1908C2.08435 16.1725 2.08344 16.144 2.08344 16.1257V14.7386C2.08344 14.6662 2.08778 14.594 2.09464 14.5219C2.10592 14.4035 2.0803 14.6064 2.09957 14.4899C2.10531 14.4551 2.11283 14.4207 2.12035 14.3862C2.13526 14.318 2.15535 14.251 2.17707 14.1848C2.18785 14.1519 2.2003 14.1196 2.21272 14.0873C2.17754 14.1787 2.23323 14.0444 2.24108 14.0281C2.27087 13.9666 2.30523 13.9074 2.34095 13.8491C2.35876 13.8201 2.37798 13.7919 2.3972 13.7638C2.40484 13.7526 2.47337 13.6624 2.41428 13.7378C2.50508 13.622 2.61067 13.5184 2.72359 13.4244C2.81052 13.3519 2.65691 13.4725 2.74846 13.4059C2.77597 13.3858 2.80447 13.3672 2.83292 13.3485C3.01953 13.2262 3.09742 12.9877 2.98007 12.7873C2.87146 12.6019 2.6061 12.5175 2.4189 12.6402C1.87714 12.9952 1.47908 13.5346 1.32932 14.1682C1.24646 14.5186 1.26308 14.8792 1.26308 15.2361V16.1216C1.26308 16.71 1.75161 17.1873 2.33671 17.1873H5.97313C6.19672 17.1873 6.38328 17.0007 6.38328 16.7771C6.38328 16.5536 6.19677 16.367 5.9732 16.367Z" fill="white"/>
</g>
</svg>
