<svg width="18" height="11" viewBox="0 0 18 11" fill="none" xmlns="http://www.w3.org/2000/svg">
<path d="M9.00031 0.000993729C8.78096 -0.000274658 8.56353 0.0417681 8.36047 0.124709C8.1574 0.20765 7.97271 0.329858 7.81698 0.484327L1.15031 7.15099C0.83647 7.46483 0.660156 7.89049 0.660156 8.33433C0.660156 8.77816 0.83647 9.20382 1.15031 9.51766C1.46415 9.8315 1.88981 10.0078 2.33364 10.0078C2.77748 10.0078 3.20314 9.8315 3.51698 9.51766L9.00031 4.01766L14.4836 9.50099C14.8025 9.77404 15.2126 9.91671 15.6321 9.90051C16.0515 9.88431 16.4494 9.71042 16.7462 9.4136C17.0431 9.11677 17.217 8.71888 17.2332 8.29942C17.2494 7.87996 17.1067 7.46983 16.8336 7.15099L10.167 0.484327C9.85654 0.17642 9.43754 0.00283527 9.00031 0.000993729Z" fill="white"/>
</svg>
