<svg width="24" height="24" viewBox="0 0 24 24" fill="none" xmlns="http://www.w3.org/2000/svg">
<path opacity="0.75" d="M3.07868 8.02843e-06C2.95468 0.00193978 2.83415 0.0423323 2.73291 0.115881L2.73051 0.117114L0.35456 1.33748C0.252456 1.38991 0.166588 1.4705 0.106578 1.57021C0.0465687 1.66993 0.0147871 1.78483 0.0147949 1.90205V9.4757C0.0147531 9.57378 0.0369746 9.67053 0.0796967 9.75826C0.122419 9.84599 0.184466 9.92229 0.260914 9.9811L1.39306 10.8526L0.708731 10.8995H0.70633C0.607561 10.8842 0.506655 10.8938 0.412341 10.9276C0.318027 10.9614 0.233148 11.0182 0.165046 11.0933C0.0969443 11.1683 0.047672 11.2592 0.0214922 11.3582C-0.00468758 11.4571 -0.00698635 11.5612 0.0147949 11.6613V20.8362C0.0148264 21.0035 0.0796041 21.1641 0.194882 21.2824L2.59965 23.7515C2.67501 23.853 2.77858 23.9286 2.89668 23.9685C3.01478 24.0083 3.14186 24.0104 3.26117 23.9746L12.3904 22.7247C12.5381 22.7043 12.6735 22.6296 12.7716 22.5144C12.8696 22.3993 12.9236 22.2514 12.9235 22.0984V21.3921L14.3221 22.541C14.4014 22.6267 14.5025 22.6879 14.6139 22.7175C14.7253 22.7472 14.8426 22.7441 14.9524 22.7086C14.9544 22.7082 14.9564 22.7078 14.9584 22.7074L23.4598 21.4611C23.6064 21.4398 23.7405 21.3648 23.8376 21.2499C23.9346 21.1351 23.988 20.9882 23.988 20.8362V12.5969C24.0195 12.4354 23.9883 12.2677 23.9011 12.1295C23.8138 11.9913 23.6774 11.8936 23.521 11.8573L20.8605 10.9093L23.4141 10.7367C23.5698 10.7261 23.7157 10.6551 23.8222 10.5381C23.9288 10.4212 23.988 10.267 23.988 10.1068V0.639774C23.988 0.472391 23.9232 0.311869 23.808 0.193511C23.6927 0.0751536 23.5363 0.0086536 23.3733 0.00863686H14.8624C14.8279 0.00271357 14.7929 -0.000173184 14.7579 8.02843e-06C14.6513 0.00214397 14.547 0.0327304 14.4554 0.0887617L12.9235 0.717434V0.639774C12.9234 0.472391 12.8587 0.311869 12.7434 0.193511C12.6281 0.0751536 12.4718 0.0086536 12.3088 0.00863686H3.18313C3.14862 0.00271357 3.11367 -0.00017318 3.07868 8.02843e-06ZM3.70298 1.27091H11.6941V9.05782C11.6691 9.15935 11.6691 9.26568 11.6941 9.36722V10.2363L11.233 10.2634C11.2302 10.263 11.2274 10.2625 11.2246 10.2622C11.1812 10.2603 11.1378 10.2632 11.095 10.2708L9.12721 10.3854C9.10682 10.3844 9.08638 10.3844 9.06598 10.3854C9.04306 10.3866 9.02021 10.389 8.99755 10.3928L3.70298 10.701V1.27091ZM15.3822 1.27091H22.7586V9.51638L15.3822 10.0156V1.27091ZM14.1529 1.57169V9.59404L12.9235 8.86059V2.07709L14.1529 1.57169ZM2.47359 1.66044V10.1068L1.24419 9.16013V2.29158L2.47359 1.66044ZM17.7786 11.1485L20.2662 12.0348L14.914 12.3676L13.2968 11.4073L14.6979 11.326C14.7673 11.334 14.8376 11.3298 14.9056 11.3136L17.7786 11.1485ZM8.94593 11.66L10.347 12.5266L3.29839 13.0862L2.15663 12.0656L3.02946 12.0052C3.09491 12.0118 3.16098 12.0077 3.22515 11.9929L8.94593 11.66ZM12.7074 12.5155L14.1529 13.3722V20.7856L12.9235 19.7761V13.1035C12.9406 12.9947 12.9297 12.8831 12.8917 12.7799C12.8538 12.6768 12.7903 12.5856 12.7074 12.5155ZM1.24419 12.9235L2.47359 14.0231V21.8371L1.24419 20.5748V12.9235ZM22.7586 13.1442V20.2889L15.3822 21.3712V13.6027L22.7586 13.1442ZM11.6941 13.6866V19.9412C11.6771 20.0254 11.6771 20.1122 11.6941 20.1964V21.5462L3.70298 22.6396V14.3202L11.6941 13.6866Z" fill="white"/>
</svg>
