<svg width="24" height="24" viewBox="0 0 24 24" fill="none" xmlns="http://www.w3.org/2000/svg">
<path opacity="0.75" d="M5.91114 0C5.57046 0.000937036 5.24408 0.107625 5.00318 0.296792C4.76228 0.48596 4.62642 0.742256 4.62522 1.00978V10.1244C4.62522 10.912 5.44477 11.5556 6.44769 11.5556H11.417V14.2222H6.1647C4.03886 14.2222 2.30922 15.5911 2.30922 17.2782V17.3049L3.44118 17.2782C3.44118 16.0836 4.66371 15.1111 6.1647 15.1111H11.417V17.3333H12.549V15.1111H17.8285C19.3318 15.1111 20.5566 16.0836 20.5566 17.2924L21.6885 17.2782C21.6885 15.5947 19.9589 14.2222 17.833 14.2222H12.549V11.5556H17.5183C18.5213 11.5556 19.3408 10.9156 19.3408 10.1244V1.00978C19.3402 0.741805 19.2042 0.484968 18.9627 0.295649C18.7212 0.10633 18.3939 -4.13844e-07 18.0526 0H5.91114ZM6.44769 0.888889H17.5183C17.8987 0.888889 18.2088 1.13422 18.2088 1.43111V3.43467C18.2088 3.50222 18.1409 3.55555 18.0526 3.55555H5.91114C5.87031 3.55555 5.83115 3.54282 5.80228 3.52015C5.77341 3.49748 5.75719 3.46673 5.75719 3.43467V1.43111C5.75719 1.13422 6.06735 0.888889 6.44769 0.888889ZM5.91114 4.44444H18.0526C18.1387 4.44444 18.2088 4.49778 18.2088 4.56533V6.99022C18.2088 7.05778 18.1409 7.10755 18.0526 7.10755H5.91114C5.89114 7.10803 5.87122 7.10535 5.85257 7.09966C5.83391 7.09398 5.8169 7.08541 5.80255 7.07447C5.78819 7.06353 5.77677 7.05043 5.76898 7.03596C5.76119 7.02149 5.75718 7.00593 5.75719 6.99022V4.56533C5.75719 4.49778 5.82738 4.44444 5.91114 4.44444ZM5.75719 7.97511C5.81153 7.98044 5.85454 8 5.91114 8H18.0526C18.107 8 18.1545 7.98222 18.2088 7.97511V10.1262C18.2088 10.2692 18.1367 10.4064 18.0081 10.5077C17.8795 10.609 17.705 10.6662 17.5229 10.6667H6.44769C6.26475 10.6662 6.08946 10.6089 5.9601 10.5073C5.83073 10.4057 5.75779 10.2681 5.75719 10.1244V7.97511ZM2.87746 19.4791C1.29271 19.4791 0 20.4924 0 21.7404C0 22.9849 1.29044 24 2.87746 24C4.46448 24 5.75719 22.9867 5.75719 21.7404C5.75719 20.4942 4.46675 19.4791 2.87746 19.4791ZM11.8879 19.4791C11.1245 19.4805 10.393 19.72 9.85445 20.1449C9.31588 20.5699 9.01433 21.1454 9.01613 21.7449C9.01793 22.3444 9.32294 22.9188 9.86406 23.3417C10.4052 23.7646 11.1381 24.0014 11.9015 24C12.665 23.9991 13.3967 23.76 13.9357 23.3354C14.4747 22.9108 14.7768 22.3355 14.7756 21.736C14.7744 21.1365 14.47 20.5619 13.9293 20.1387C13.3886 19.7154 12.6559 19.4782 11.8925 19.4791H11.8879ZM21.1225 19.4791C19.5355 19.4791 18.2428 20.4924 18.2428 21.7404C18.2428 22.9849 19.5333 24 21.1225 24C22.7073 24 24 22.9867 24 21.7404C24 20.4942 22.7073 19.4791 21.1225 19.4791ZM2.87746 20.368C3.32187 20.3898 3.739 20.5437 4.04389 20.7986C4.34879 21.0534 4.51852 21.3899 4.51852 21.7395C4.51852 22.0892 4.34879 22.4257 4.04389 22.6805C3.739 22.9354 3.32187 23.0893 2.87746 23.1111C2.42511 23.0983 1.99672 22.9482 1.68247 22.6924C1.36821 22.4366 1.1926 22.095 1.1926 21.7395C1.1926 21.3841 1.36821 21.0425 1.68247 20.7867C1.99672 20.5309 2.42511 20.3808 2.87746 20.368ZM11.8879 20.368C12.3323 20.3898 12.7495 20.5437 13.0544 20.7986C13.3593 21.0534 13.529 21.3899 13.529 21.7395C13.529 22.0892 13.3593 22.4257 13.0544 22.6805C12.7495 22.9354 12.3323 23.0893 11.8879 23.1111C11.4247 23.1111 10.9804 22.9666 10.6529 22.7094C10.3253 22.4522 10.1413 22.1033 10.1413 21.7395C10.1413 21.3758 10.3253 21.0269 10.6529 20.7697C10.9804 20.5125 11.4247 20.368 11.8879 20.368ZM21.1225 20.368C21.5669 20.3898 21.9841 20.5437 22.289 20.7986C22.5939 21.0534 22.7636 21.3899 22.7636 21.7395C22.7636 22.0892 22.5939 22.4257 22.289 22.6805C21.9841 22.9354 21.5669 23.0893 21.1225 23.1111C20.6702 23.0983 20.2418 22.9482 19.9275 22.6924C19.6133 22.4366 19.4377 22.095 19.4377 21.7395C19.4377 21.3841 19.6133 21.0425 19.9275 20.7867C20.2418 20.5309 20.6702 20.3808 21.1225 20.368Z" fill="white"/>
</svg>
